<?xml version="1.0" encoding="UTF-8"?>
<svg width="25px" height="29px" viewBox="0 0 25 29" version="1.1" xmlns="http://www.w3.org/2000/svg" xmlns:xlink="http://www.w3.org/1999/xlink">
    <!-- Generator: sketchtool 50.2 (55047) - http://www.bohemiancoding.com/sketch -->
    <title>FEBE840F-34D5-49B5-B3D0-571A112D9B6A</title>
    <desc>Created with sketchtool.</desc>
    <defs></defs>
    <g id="Page-1" stroke="none" stroke-width="1" fill="none" fill-rule="evenodd" opacity="0.414676339">
        <g id="Business_game" transform="translate(-1568.000000, -54.000000)" fill="#E9ECEF" fill-rule="nonzero">
            <g id="header">
                <g id="apple" transform="translate(1521.000000, 53.000000)">
                    <g id="android-logo" transform="translate(47.526316, 1.621622)">
                        <path d="M1.78686221,9.23783517 L1.71355446,9.23783517 C0.773810307,9.23783517 0.00759137427,9.99877951 0.00759137427,10.9266852 L0.00759137427,18.2796576 C0.00759137427,19.2112087 0.773810307,19.9696854 1.71355446,19.9696854 L1.78810855,19.9696854 C2.7278527,19.9696854 3.49407164,19.2087411 3.49407164,18.2796576 L3.49407164,10.9266291 C3.49282529,9.99877951 2.72541667,9.23783517 1.78686221,9.23783517 Z" id="Shape"></path>
                        <path d="M4.31037098,21.1177759 C4.31037098,21.9718753 5.01546235,22.6674821 5.87821637,22.6674821 L7.55364401,22.6674821 L7.55364401,26.6391652 C7.55364401,27.571894 8.32229898,28.3304268 9.25960709,28.3304268 L9.33291484,28.3304268 C10.2739053,28.3304268 11.041314,27.5707163 11.041314,26.6391652 L11.041314,22.6674821 L13.3827431,22.6674821 L13.3827431,26.6391652 C13.3827431,27.571894 14.1538341,28.3304268 15.0911422,28.3304268 L15.1632602,28.3304268 C16.1041941,28.3304268 16.870413,27.5707163 16.870413,26.6391652 L16.870413,22.6674821 L18.5470303,22.6674821 C19.408538,22.6674821 20.113686,21.9718753 20.113686,21.1177759 L20.113686,9.50759801 L4.31037098,9.50759801 L4.31037098,21.1177759 Z" id="Shape"></path>
                        <path d="M16.1481561,2.46673165 L17.4789693,0.433134815 C17.5645139,0.304871274 17.5266137,0.129497383 17.3958607,0.0459886764 C17.2663542,-0.0386977887 17.0891466,-0.00358936011 17.0047917,0.12826354 L15.6251444,2.23207724 C14.5901115,1.81229035 13.4340698,1.57640209 12.2132182,1.57640209 C10.9911769,1.57640209 9.83757127,1.81229035 8.80010234,2.23207724 L7.42289108,0.12826354 C7.33859284,-0.00358936011 7.16013889,-0.0386977887 7.02938596,0.0459886764 C6.89863304,0.129441299 6.86073282,0.304871274 6.94627741,0.433134815 L8.27828034,2.46673165 C5.87697003,3.63175943 4.25779788,5.82749439 4.25779788,8.34621568 C4.25779788,8.50106292 4.26759868,8.65349856 4.28102522,8.80470035 L20.1466009,8.80470035 C20.1600274,8.65349856 20.1685819,8.50106292 20.1685819,8.34621568 C20.1686385,5.82749439 18.54822,3.63175943 16.1481561,2.46673165 Z M8.53491411,6.10813749 C8.11330958,6.10813749 7.77113121,5.77180323 7.77113121,5.35325019 C7.77113121,4.93469715 8.11330958,4.59954065 8.53491411,4.59954065 C8.95895468,4.59954065 9.298697,4.93464106 9.298697,5.35325019 C9.298697,5.77185931 8.95651864,6.10813749 8.53491411,6.10813749 Z M15.8903326,6.10813749 C15.4687281,6.10813749 15.1265497,5.77180323 15.1265497,5.35325019 C15.1265497,4.93469715 15.4687281,4.59954065 15.8903326,4.59954065 C16.3131268,4.59954065 16.6528692,4.93464106 16.6528692,5.35325019 C16.6528692,5.77180323 16.3131268,6.10813749 15.8903326,6.10813749 Z" id="Shape"></path>
                        <path d="M22.7104459,9.23783517 L22.6395742,9.23783517 C21.69983,9.23783517 20.9311751,9.99877951 20.9311751,10.9266852 L20.9311751,18.2796576 C20.9311751,19.2112087 21.7010764,19.9696854 22.6395742,19.9696854 L22.7116923,19.9696854 C23.6526261,19.9696854 24.4176553,19.2087411 24.4176553,18.2796576 L24.4176553,10.9266291 C24.4176553,9.99877951 23.6501901,9.23783517 22.7104459,9.23783517 Z" id="Shape"></path>
                    </g>
                </g>
            </g>
        </g>
    </g>
</svg>