<?xml version="1.0" encoding="UTF-8"?>
<svg width="25px" height="30px" viewBox="0 0 25 30" version="1.1" xmlns="http://www.w3.org/2000/svg" xmlns:xlink="http://www.w3.org/1999/xlink">
    <!-- Generator: sketchtool 50.2 (55047) - http://www.bohemiancoding.com/sketch -->
    <title>84D56B82-2DE2-4DDE-91EB-9D6946BA758F</title>
    <desc>Created with sketchtool.</desc>
    <defs></defs>
    <g id="Page-1" stroke="none" stroke-width="1" fill="none" fill-rule="evenodd" opacity="0.414676339">
        <g id="Business_game" transform="translate(-1521.000000, -53.000000)" fill="#E9ECEF" fill-rule="nonzero">
            <g id="header">
                <g id="apple" transform="translate(1521.000000, 53.000000)">
                    <path d="M20.3869465,15.9401953 C20.3491236,12.140918 23.4830432,10.3188281 23.6230351,10.2283008 C21.8621593,7.64958984 19.119116,7.29632812 18.1416324,7.25548828 C15.8072059,7.01894531 13.5865996,8.63091797 12.4018508,8.63091797 C11.2200881,8.63091797 9.39188043,7.29046875 7.45582465,7.32568359 C4.91138119,7.36353516 2.56524483,8.80628906 1.25508303,11.0868164 C-1.38854326,15.6776367 0.578075347,22.4786133 3.15472103,26.2018359 C4.41376913,28.0243359 5.91509499,30.07125 7.88628046,29.998125 C9.78451327,29.9223047 10.5023299,28.7688867 12.7972941,28.7688867 C15.0921996,28.7688867 15.7373564,29.998125 17.7461306,29.9603906 C19.788805,29.9224219 21.0829243,28.1030273 22.333307,26.2749609 C23.779128,24.1606641 24.3744591,22.1136914 24.4095888,22.0086328 C24.364213,21.9878906 20.4264089,20.4782227 20.3869465,15.9401953 Z M16.6123784,4.79068359 C17.6585991,3.52042969 18.3647645,1.75810547 18.1721367,0 C16.6651315,0.06140625 14.8384462,1.00458984 13.7572128,2.27197266 C12.7870479,3.39626953 11.9377876,5.19070312 12.1653695,6.91365234 C13.8477303,7.04501953 15.5650453,6.05806641 16.6123784,4.79068359 Z" id="Apple_logo"></path>
                </g>
            </g>
        </g>
    </g>
</svg>