<?xml version="1.0" encoding="UTF-8"?>
<svg width="577px" height="458px" viewBox="0 0 577 458" version="1.1" xmlns="http://www.w3.org/2000/svg" xmlns:xlink="http://www.w3.org/1999/xlink">
    <!-- Generator: sketchtool 50.2 (55047) - http://www.bohemiancoding.com/sketch -->
    <title>E1B063D5-1DE7-45C8-9FBA-7EE611FCF85E</title>
    <desc>Created with sketchtool.</desc>
    <defs>
        <rect id="path-1" x="40" y="0" width="470" height="370" rx="10"></rect>
        <filter x="-8.5%" y="-5.4%" width="117.0%" height="121.6%" filterUnits="objectBoundingBox" id="filter-2">
            <feOffset dx="0" dy="20" in="SourceAlpha" result="shadowOffsetOuter1"></feOffset>
            <feGaussianBlur stdDeviation="10" in="shadowOffsetOuter1" result="shadowBlurOuter1"></feGaussianBlur>
            <feComposite in="shadowBlurOuter1" in2="SourceAlpha" operator="out" result="shadowBlurOuter1"></feComposite>
            <feColorMatrix values="0 0 0 0 0   0 0 0 0 0   0 0 0 0 0  0 0 0 0.1 0" type="matrix" in="shadowBlurOuter1"></feColorMatrix>
        </filter>
        <path d="M10,0 L316,0 C321.522847,-1.01453063e-15 326,4.4771525 326,10 L326,360 C326,365.522847 321.522847,370 316,370 L10,370 C4.4771525,370 -1.10000309e-15,365.522847 -1.77635684e-15,360 L-1.77635684e-15,10 C-2.45271059e-15,4.4771525 4.4771525,1.01453063e-15 10,0 Z" id="path-3"></path>
        <filter x="-12.3%" y="-5.4%" width="124.5%" height="121.6%" filterUnits="objectBoundingBox" id="filter-5">
            <feOffset dx="0" dy="20" in="SourceAlpha" result="shadowOffsetOuter1"></feOffset>
            <feGaussianBlur stdDeviation="10" in="shadowOffsetOuter1" result="shadowBlurOuter1"></feGaussianBlur>
            <feComposite in="shadowBlurOuter1" in2="SourceAlpha" operator="out" result="shadowBlurOuter1"></feComposite>
            <feColorMatrix values="0 0 0 0 0   0 0 0 0 0   0 0 0 0 0  0 0 0 0.1 0" type="matrix" in="shadowBlurOuter1"></feColorMatrix>
        </filter>
    </defs>
    <g id="Page-1" stroke="none" stroke-width="1" fill="none" fill-rule="evenodd">
        <g id="Business_game" transform="translate(-336.000000, -2830.000000)">
            <g id="product" transform="translate(0.000000, 2702.000000)">
                <g id="section#2" transform="translate(335.000000, 128.000000)">
                    <g id="item#1">
                        <g id="Card_img">
                            <g id="browser_sample">
                                <g id="base">
                                    <use fill="black" fill-opacity="1" filter="url(#filter-2)" xlink:href="#path-1"></use>
                                    <rect stroke-opacity="0.15" stroke="#000000" stroke-width="0.5" stroke-linejoin="square" fill="#FBD956" fill-rule="evenodd" x="40.25" y="0.25" width="469.5" height="369.5" rx="10"></rect>
                                </g>
                                <g id="Блогер" transform="translate(0.000000, 12.000000)" fill-rule="nonzero">
                                    <path d="M118.716961,224.43487 C92.0461131,221.185341 68.5650177,204.463476 57.7825088,179.835803 C49.8367491,161.6865 48.8540636,139.415611 69.7480565,117.044466 C118.502297,64.8451298 137.063604,77.6220481 161.991696,42.6283462 C186.919788,7.63464423 229.140283,-12.2651394 265.839929,8.87907692 C302.539576,30.0232933 350.551237,33.8695769 366.65265,83.5593606 C382.754064,133.249144 406.061837,151.842433 412.708481,168.139409 C427.676148,204.831077 382.267491,256.551418 118.716961,224.43487 Z" id="Shape" fill="#FAE697"></path>
                                    <path d="M307.343286,229.436471 L178.808657,229.436471 L178.808657,74.6398654 C178.808657,70.2461587 182.368905,66.6831346 186.759187,66.6831346 L299.392756,66.6831346 C303.783039,66.6831346 307.343286,70.2461587 307.343286,74.6398654 L307.343286,229.436471 Z" id="Shape" fill="#17C671"></path>
                                    <polygon id="Shape" fill="#74AF68" points="288.419435 185.588519 173.322792 185.588519 157.380389 229.442837 304.361837 229.442837"></polygon>
                                    <rect id="Rectangle-path" fill="#17C671" x="152.274558" y="229.442837" width="155.073498" height="32.9169952"></rect>
                                    <polygon id="Shape" fill="#74AF68" points="122.00053 173.893716 185.793993 129.37899 202.55212 129.37899 145.755124 181.307798"></polygon>
                                    <polygon id="Shape" fill="#17C671" points="157.380389 229.442837 178.886572 170.631457 178.886572 151.016524 145.755124 181.307798"></polygon>
                                    <polygon id="Shape" fill="#90BF88" points="339.833922 174.056034 276.040459 129.541308 259.280742 129.541308 316.079329 181.470115"></polygon>
                                    <polygon id="Shape" fill="#90BF88" points="304.454064 229.606745 282.94788 170.793774 282.94788 151.180433 316.079329 181.470115"></polygon>
                                    <rect id="Rectangle-path" fill="#C48357" x="133.121731" y="262.359832" width="16.7915194" height="31.5484375"></rect>
                                    <polygon id="Shape" fill="#96623E" points="149.911661 293.908269 158.275618 285.930851 158.275618 254.382413 149.911661 262.359832"></polygon>
                                    <rect id="Rectangle-path" fill="#C48357" x="311.808304" y="262.359832" width="16.7915194" height="31.5484375"></rect>
                                    <polygon id="Shape" fill="#96623E" points="307.343286 283.271712 311.808304 293.908269 311.808304 262.359832 307.343286 251.723274"></polygon>
                                    <g id="Group" transform="translate(145.681979, 30.826923)">
                                        <ellipse id="Oval" fill="#FFCCBC" cx="49.0388693" cy="36.198351" rx="4.21696113" ry="5.72248077"></ellipse>
                                        <path d="M63.7282686,3.38638462 C63.7282686,3.38638462 49.8832155,-1.31922596 43.904417,18.7906154 C37.9256184,38.9004567 41.1169611,77.9218558 41.1169611,77.9218558 L63.5072438,77.9218558 L63.7282686,3.38638462 Z" id="Shape" fill="#082840"></path>
                                        <path d="M57.119788,52.0513413 C57.119788,52.0513413 59.7879859,62.6894904 51.2268551,68.0077692 C42.6657244,73.3260481 36.1144876,69.3365433 19.5074205,93.6013894 C2.90035336,117.866236 1.24028269,119.527601 1.24028269,119.527601 C1.24028269,119.527601 14.3602473,112.048274 24.6561837,119.527601 L37.1114841,108.060361 C37.1114841,108.060361 43.4226148,129.333476 48.2374558,135.316937 C53.0538869,141.300399 91.5805654,133.488481 91.5805654,133.488481 C91.5805654,133.488481 96.285689,82.4269567 80.295583,67.9075144 C71.985689,60.361351 73.6918728,43.438976 73.6918728,43.438976 L57.119788,52.0513413 Z" id="Shape" fill="#F8CEC7"></path>
                                        <path d="M61.5227915,88.4486106 C61.5227915,88.4486106 50.2298587,81.6344663 51.2268551,68.0061779 C42.6657244,73.3244567 37.5869258,68.3292212 19.8397527,91.7729327 C3.23268551,113.711231 2.29134276,117.476356 2.29134276,117.476356 C2.29134276,117.476356 14.3602473,112.048274 24.6561837,119.527601 L37.1114841,108.060361 C37.1114841,108.060361 41.595583,130.584274 46.410424,136.567736 C51.225265,142.551197 91.5805654,133.488481 91.5805654,133.488481 L76.3028269,76.6487788 L61.5227915,88.4486106 Z" id="Shape" fill="#8252F7"></path>
                                        <path d="M0.41024735,120.690875 C0.41024735,120.690875 1.904947,114.374822 10.3738516,114.541913 C18.8427562,114.707413 29.1386926,121.188966 33.1250883,126.674337 C33.1250883,126.674337 25.4862191,131.161933 23.9915194,136.31312 C23.9915194,136.31312 -3.24222615,132.158115 0.41024735,120.690875 Z" id="Shape" fill="#F8B732"></path>
                                        <path d="M33.1250883,126.674337 C33.1250883,126.674337 37.7745583,135.149846 37.1114841,142.629173 C36.4468198,150.1085 38.4392226,155.75937 35.9491166,156.922644 C35.2510601,157.24887 34.3812721,157.522582 33.4939929,157.748553 C30.6174912,158.478981 27.5708481,157.361856 25.8090106,154.973245 C24.645053,153.39463 23.5685512,151.634601 23.4938163,150.441091 C23.3284452,147.781952 23.9915194,136.314712 23.9915194,136.314712 C23.9915194,136.314712 25.8185512,128.170202 33.1250883,126.674337 Z" id="Shape" fill="#F8CEC7"></path>
                                        <path d="M51.5003534,127.672111 C51.5003534,127.672111 40.7655477,128.337293 36.0031802,135.345582 C31.3171378,142.240885 38.1084806,144.790221 38.1084806,144.790221 L59.8627208,136.314712 L59.8627208,127.672111 L51.5003534,127.672111 Z" id="Shape" fill="#F8CEC7"></path>
                                        <path d="M96.2316254,136.31312 C96.2316254,136.31312 119.663428,152.929957 108.702827,176.599639 C100.95583,193.329462 48.9943463,157.088144 48.9943463,157.088144 L46.4120141,136.567736 L96.2316254,136.31312 Z" id="Shape" fill="#5E6CAE"></path>
                                        <path d="M104.865901,192.322139 C104.865901,192.322139 113.501767,194.316096 120.14364,192.322139 C126.785512,190.328183 114.164841,184.01213 114.164841,184.01213 L98.5547703,184.01213 L104.865901,192.322139 Z" id="Shape" fill="#F4BEB8"></path>
                                        <path d="M81.2623675,65.4679808 C91.5821555,65.4663894 98.0825088,74.6882404 100.407244,82.000476 C102.566608,88.7939327 105.853357,116.792077 104.975618,135.124385 C104.842049,137.910832 102.795583,140.23738 100.04629,140.695688 C96.4415194,141.297216 90.6249117,140.647947 81.2607774,139.139351 C64.7189046,136.473846 58.905477,136.504082 58.905477,136.504082 C58.905477,136.504082 55.259364,127.837611 51.4987633,127.672111 C51.4987633,127.672111 66.4330389,122.851923 87.3572438,121.356058 C87.3588339,121.356058 69.0710247,65.4679808 81.2623675,65.4679808 Z" id="Shape" fill="#F8B732"></path>
                                        <path d="M44.5293286,164.290577 C44.5293286,164.290577 25.0187279,165.302673 23.6178445,177.697668 C22.7273852,185.563692 25.7008834,191.545563 35.0681979,193.208519 C46.2816254,195.200885 56.4074205,195.393438 66.1134276,194.478413 C79.3510601,193.229207 104.867491,192.322139 104.867491,192.322139 L101.264311,182.869543 L44.5293286,164.290577 Z" id="Shape" fill="#5E6CAE"></path>
                                        <path d="M99.8189046,184.01213 C105.420848,185.256563 111.580919,190.872423 120.14523,195.005149 C127.618728,198.611139 139.49523,199.441822 147.784452,198.307192 C150.576678,197.925269 151.694523,194.491144 149.660777,192.540154 C148.574735,191.496231 146.975088,190.391837 145.187809,189.320861 C139.181979,185.722827 132.473322,183.499716 125.565901,182.368269 C122.500177,181.865404 119.068728,181.09201 116.602473,179.931918 C115.413074,179.371764 113.202827,177.872716 110.342226,175.786462 L99.8189046,184.01213 Z" id="Shape" fill="#F8CEC7"></path>
                                        <path d="M68.0628975,144.513327 C60.5178445,140.173726 44.0538869,131.833481 34.9298587,139.086837 C25.8042403,146.340192 28.9128975,154.034351 31.3934629,157.707178 C33.8740283,161.381596 46.7713781,168.358058 56.5727915,171.736486 C66.3742049,175.114913 96.2666078,184.384505 102.350353,185.721236 C102.350353,185.721236 103.703534,181.012442 111.620671,175.959918 C100.098763,167.654683 78.8310954,150.705255 68.0628975,144.513327 Z" id="Shape" fill="#7A8AC3"></path>
                                        <path d="M57.809894,4.38256731 C57.809894,4.38256731 78.1521201,-9.37621154 90.6678445,17.4284231 C95.9803887,28.8065481 93.4743816,46.6853221 91.170318,66.9670288 C89.2558304,83.8066538 84.7017668,105.756091 87.3588339,121.356058 C87.3588339,121.356058 78.7404594,121.9735 73.7872792,122.845558 C72.7441696,109.588053 69.7404594,69.26175 72.6964664,46.4291154 C76.0531802,41.701226 63.0922261,19.2505144 61.3287986,13.0235769 C60.225265,9.13432692 57.809894,4.38256731 57.809894,4.38256731 Z" id="Shape" fill="#082840"></path>
                                        <path d="M51.6482332,18.4261971 C49.469788,25.3915192 47.4916961,30.9835096 50.7975265,42.5239519 C53.489576,51.920851 57.7208481,55.4043077 62.804417,55.736899 C67.8879859,56.0694904 77.3872792,47.8390481 78.1600707,34.4637837 C78.8310954,22.8469567 80.8966431,17.1801731 74.8685512,12.5254856 C68.8420495,7.87238942 55.1830389,7.12445673 51.6482332,18.4261971 Z" id="Shape" fill="#F8CEC7"></path>
                                        <path d="M61.3272085,13.0251683 C61.3272085,13.0251683 52.5816254,23.4039279 47.2595406,29.7183894 C45.6328622,9.33165385 61.3272085,5.49332692 61.3272085,5.49332692 L61.3272085,13.0251683 Z" id="Shape" fill="#4B1621"></path>
                                        <path d="M61.3272085,13.0251683 C61.3272085,13.0251683 65.8415194,27.4714087 79.0489399,29.7183894 C85.8800353,9.7438125 61.3272085,5.49332692 61.3272085,5.49332692 L61.3272085,13.0251683 Z" id="Shape" fill="#4B1621"></path>
                                        <ellipse id="Oval" fill="#F8CEC7" transform="translate(78.166797, 33.285222) rotate(-77.126913) translate(-78.166797, -33.285222) " cx="78.1667973" cy="33.2852217" rx="5.325451" ry="3.02366329"></ellipse>
                                    </g>
                                    <path d="M146.922261,182.346947 C143.00742,174.385442 134.215724,169.239029 125.802473,172.038207 C117.389223,174.837385 112.838339,183.933519 115.635336,192.353332 C118.432332,200.773144 128.173322,225.830481 133.120141,262.359832 L158.259717,262.359832 C158.733569,198.440231 148.39629,185.345043 146.922261,182.346947 Z" id="Shape" fill="#17C671"></path>
                                    <path d="M314.816784,182.346947 C318.731625,174.385442 327.523322,169.239029 335.934982,172.038207 C344.346643,174.837385 348.899117,183.933519 346.10212,192.353332 C343.305124,200.773144 333.564134,225.830481 328.617314,262.359832 L303.477739,262.359832 C303.007067,198.440231 313.342756,185.345043 314.816784,182.346947 Z" id="Shape" fill="#9ECE93"></path>
                                    <g id="Group" transform="translate(0.982332, 113.576923)">
                                        <path d="M95.5160777,191.520101 L86.5780919,191.520101 L66.1547703,125.740216 L55.8349823,92.6561298 C55.1353357,90.4202885 56.3803887,88.0125817 58.6319788,87.3123894 C59.0581272,87.1755337 59.4842756,87.1246106 59.9120141,87.1246106 C60.2363958,87.1246106 60.5607774,87.1580288 60.8676678,87.2439615 C62.3003534,87.5685962 63.5120141,88.6093365 63.9715548,90.1115673 L95.5160777,191.520101 Z" id="Shape" fill="#889899"></path>
                                        <polygon id="Shape" fill="#748182" points="60.3524735 92.7929856 43.6865724 92.7929856 48.8035336 77.53675 55.2339223 77.53675"></polygon>
                                        <path d="M36.7902827,61.2111298 C36.7902827,61.2111298 33.7929329,64.7646058 33.7929329,68.2846635 C33.7929329,71.8047212 36.6837456,74.9746827 35.9904594,77.5351587 C35.9904594,77.5351587 39.3010601,73.0698413 39.3010601,68.5774712 C39.3010601,65.8371731 39.0291519,63.6649856 36.7902827,61.2111298 Z" id="Shape" fill="#748182"></path>
                                        <path d="M35.9904594,77.53675 C36.6837456,74.976274 34.4973498,71.7744856 34.4973498,68.2544279 C34.4973498,64.7327788 36.7886926,61.2127212 36.7886926,61.2127212 L32.819788,61.2127212 L31.1136042,61.2127212 C31.1136042,61.2127212 28.8222615,64.7343702 28.8222615,68.2544279 C28.8222615,71.7760769 31.0070671,74.976274 30.315371,77.53675" id="Shape" fill="#889899"></path>
                                        <rect id="Rectangle-path" fill="#8A9899" x="49.3187279" y="48.5503798" width="5.40159011" height="16.0757788"></rect>
                                        <rect id="Rectangle-path" fill="#889899" x="36.9" y="66.2525144" width="12.7733216" height="5.09708173"></rect>
                                        <rect id="Rectangle-path" fill="#8A9899" x="46.6091873" y="67.8979663" width="10.8206714" height="11.5229375"></rect>
                                        <path d="M54.720318,62.9186442 L43.4893993,62.9186442 C43.4893993,62.9186442 42.4939929,64.6261587 42.4939929,68.7509279 C42.4939929,73.1605481 43.4893993,74.5832115 43.4893993,74.5832115 L54.7187279,74.5832115 L59.7212014,72.8756971 L59.7212014,61.2111298 L54.720318,62.9186442 Z" id="Shape" fill="#A9B5B7"></path>
                                        <rect id="Rectangle-path" fill="#A9B5B7" x="40.1501767" y="43.0029471" width="26.2256184" height="7.96627885"></rect>
                                        <path d="M89.4212014,31.7648606 L65.0782686,31.7648606 C63.3212014,31.7648606 61.8980565,30.3406058 61.8980565,28.5821683 L61.8980565,18.9577067 C61.8980565,17.1992692 63.3212014,15.7750144 65.0782686,15.7750144 L89.4212014,15.7750144 C91.1782686,15.7750144 92.6014134,17.1992692 92.6014134,18.9577067 L92.6014134,28.5821683 C92.6014134,30.3390144 91.1782686,31.7648606 89.4212014,31.7648606 Z" id="Shape" fill="#A9B5B7"></path>
                                        <path d="M85.8291519,39.9348317 L77.6321555,43.7047308 L75.9704947,10.6397404 L83.0242049,7.58276442 C85.2757951,6.60726923 87.7897527,8.25749519 87.7913428,10.7129423 L87.8151943,36.8301154 C87.8167845,38.1636635 87.0408127,39.3762692 85.8291519,39.9348317 Z" id="Shape" fill="#A9B5B7"></path>
                                        <path d="M75.9704947,10.638149 L30.0689046,11.4497356 L34.125265,9.06271635 C36.090636,7.90580769 38.3279152,7.29632212 40.6065371,7.29632212 L84.2819788,7.29791346 L75.9704947,10.638149 Z" id="Shape" fill="#A9B5B7"></path>
                                        <path d="M76.2026502,44.1407596 L32.0295053,44.1407596 C30.2803887,44.1407596 28.8492933,42.7085481 28.8492933,40.9580673 L28.8492933,13.8208413 C28.8492933,12.0703606 30.2803887,10.638149 32.0295053,10.638149 L76.2026502,10.638149 C77.9517668,10.638149 79.3828622,12.0703606 79.3828622,13.8208413 L79.3828622,40.9580673 C79.3828622,42.7085481 77.9517668,44.1407596 76.2026502,44.1407596 Z" id="Shape" fill="#BAC6C6"></path>
                                        <rect id="Rectangle-path" fill="#F7F7F7" x="33.9662544" y="15.7606923" width="31.4141343" height="21.4815817"></rect>
                                        <ellipse id="Oval" fill="#A9B5B7" cx="72.254417" cy="32.810375" rx="4.42685512" ry="4.43030769"></ellipse>
                                        <path d="M67.1167845,7.29791346 L64.8174912,9.62446154 C64.1766784,10.2737308 63.3037102,10.638149 62.3909894,10.638149 L48.4632509,10.638149 C46.5789753,10.638149 45.0524735,9.10886538 45.0524735,7.22471154 L48.1770318,1.99236538 L63.5819788,1.30649519 C65.5139576,1.23647596 67.1167845,2.78485577 67.1167845,4.71834135 L67.1167845,7.29791346 Z" id="Shape" fill="#A9B5B7"></path>
                                        <path d="M60.6371025,10.638149 L48.2342756,10.638149 C46.4772085,10.638149 45.0540636,9.21389423 45.0540636,7.45545673 L45.0540636,5.15914423 C45.0540636,3.40070673 46.4772085,1.97645192 48.2342756,1.97645192 L60.6371025,1.97645192 C62.3941696,1.97645192 63.8173145,3.40070673 63.8173145,5.15914423 L63.8173145,7.45545673 C63.8173145,9.21389423 62.3925795,10.638149 60.6371025,10.638149 Z" id="Shape" fill="#BAC6C6"></path>
                                        <rect id="Rectangle-path" fill="#A9B5B7" x="48.9180212" y="4.27435577" width="11.0337456" height="4.06588942"></rect>
                                        <path d="M49.6765018,87.9282404 C49.6765018,88.4406538 49.574735,88.9530673 49.3871025,89.4654808 L9.89840989,191.521692 L0.772791519,191.521692 L41.4206714,86.4100962 C42.2729682,84.2076731 44.729682,83.0985048 46.9303887,83.9514663 C48.6190813,84.5991442 49.6765018,86.220726 49.6765018,87.9282404 Z" id="Shape" fill="#A9B5B7"></path>
                                        <path d="M74.9734982,191.520101 L66.3757951,191.520101 L52.440106,88.5074904 C52.1157244,86.1682115 53.7535336,84.0183029 56.0909894,83.6936683 C56.2786219,83.6761635 56.4662544,83.66025 56.6538869,83.66025 C58.7353357,83.66025 60.5432862,85.144976 60.8676678,87.2455529 C60.8676678,87.2789712 60.885159,87.3139808 60.885159,87.347399 L66.1563604,125.740216 L74.9734982,191.520101 Z" id="Shape" fill="#A9B5B7"></path>
                                    </g>
                                    <g id="Group" transform="translate(134.551237, 142.221154)" fill="#FFFFFF">
                                        <path d="M27.7696113,11.2762788 C27.7743816,11.4529183 27.6726148,13.4166394 26.3750883,16.2667404 L26.0936396,16.8905481 C25.004417,19.322125 23.8770318,21.8364519 20.8924028,21.8364519 L18.4881625,21.8364519 L18.4881625,19.1964087 L20.8924028,19.1964087 C22.2583039,19.1964087 22.784629,18.2972981 23.9358657,15.7256827 L24.2236749,15.0859615 C25.2524735,12.8278413 25.365371,11.3049231 25.365371,11.290601 C25.365371,9.33483654 23.9279152,7.75622115 22.1597173,7.75622115 L18.4881625,7.75622115 L18.4881625,5.11617788 L22.1597173,5.11617788 C25.2524735,5.11617788 27.7696113,7.88034615 27.7696113,11.2762788 Z" id="Shape"></path>
                                        <path d="M18.720318,26.48 L3.40600707,26.48 C0.853886926,13.0569952 0.853886926,1.72979327 0.853886926,1.72979327 C0.853886926,1.034375 1.42632509,0.471038462 2.13074205,0.471038462 L19.9971731,0.471038462 C20.7015901,0.471038462 21.2740283,1.034375 21.2740283,1.72979327 C21.2724382,1.73138462 21.2724382,13.0569952 18.720318,26.48 Z" id="Shape"></path>
                                    </g>
                                    <path d="M155.772792,146.064255 C155.7553,147.001558 155.701237,148.24599 155.610601,149.725942 C153.35742,149.95987 150.65424,150.122188 147.572615,150.122188 C144.039399,150.122188 140.021201,149.905764 135.605477,149.293096 C135.514841,147.759038 135.460777,146.514606 135.443286,145.613904 C143.931272,146.858337 151.015194,146.587808 155.772792,146.064255 Z" id="Shape" fill="#FFFFFF"></path>
                                    <path d="M155.340283,153.316019 C155.249647,154.469745 155.124028,155.696673 154.99841,156.995212 C152.870848,157.19413 150.383922,157.337351 147.572615,157.337351 C144.20318,157.337351 140.363074,157.138433 136.181095,156.57987 C136.055477,155.263827 135.94735,154.036899 135.839223,152.881582 C143.89629,154.019394 150.65424,153.802971 155.340283,153.316019 Z" id="Shape" fill="#FFFFFF"></path>
                                    <path d="M154.565901,160.602793 C154.40371,161.79312 154.224028,163.037553 154.025265,164.301082 C152.113958,164.445894 149.951413,164.554106 147.572615,164.554106 C144.454417,164.554106 140.957774,164.374284 137.136749,163.904837 C136.937986,162.641308 136.775795,161.396875 136.613604,160.206548 C143.913781,161.161356 150.096113,161.018135 154.565901,160.602793 Z" id="Shape" fill="#FFFFFF"></path>
                                </g>
                            </g>
                            <g id="maximized_widget" transform="translate(232.000000, 48.000000)">
                                <mask id="mask-4" fill="white">
                                    <use xlink:href="#path-3"></use>
                                </mask>
                                <g id="base">
                                    <use fill="black" fill-opacity="1" filter="url(#filter-5)" xlink:href="#path-3"></use>
                                    <path stroke-opacity="0.15" stroke="#000000" stroke-width="0.5" d="M10,0.25 C4.61522369,0.25 0.25,4.61522369 0.25,10 L0.25,360 C0.25,365.384776 4.61522369,369.75 10,369.75 L316,369.75 C321.384776,369.75 325.75,365.384776 325.75,360 L325.75,10 C325.75,4.61522369 321.384776,0.25 316,0.25 L10,0.25 Z" stroke-linejoin="square" fill="#AC8AFF" fill-rule="evenodd"></path>
                                </g>
                                <g id="Group-2" mask="url(#mask-4)">
                                    <g transform="translate(0.000000, 33.000000)" id="Миллионер">
                                        <g>
                                            <path d="M498.716352,250.814572 C492.091111,291.502358 460.003252,322.485268 420.48972,326.346391 L402.126149,328.141171 L173.333563,346.282937 C155.522432,347.695892 137.719366,343.416191 122.311548,334.01555 L51.6940635,290.936767 C11.4042933,266.359115 -8.33634322,216.991459 3.31730595,169.957628 C13.0293523,130.756304 42.8731785,100.404322 80.7797975,91.1731546 L113.11565,83.29777 C123.265212,80.8271411 132.906691,76.4923105 141.592491,70.4995043 L179.343862,44.4517258 C215.732281,19.3452364 264.342918,25.9179259 293.345988,59.8676329 C316.631108,87.12214 345.583773,108.498184 378.006321,122.370459 L445.645875,151.309485 C483.518219,167.515585 505.553294,208.828175 498.716352,250.814572 Z" id="Shape" fill="#F6FAFF" fill-rule="nonzero" opacity="0.0267299107"></path>
                                            <g id="Group" transform="translate(216.963127, 249.297622)" fill-rule="nonzero">
                                                <g transform="translate(96.968091, 0.000000)" id="Rectangle-path">
                                                    <rect fill="#37F87A" x="0.351224919" y="0.228121968" width="51.5048993" height="46.297577"></rect>
                                                    <rect fill="#17C671" x="0.351224919" y="7.53920739" width="51.5048993" height="2.43330099"></rect>
                                                    <rect fill="#17C671" x="0.351224919" y="17.2858303" width="51.5048993" height="2.43330099"></rect>
                                                    <rect fill="#17C671" x="0.351224919" y="27.0324532" width="51.5048993" height="2.43330099"></rect>
                                                    <rect fill="#6BA35D" x="0.351224919" y="36.7790761" width="51.5048993" height="2.43330099"></rect>
                                                    <rect fill="#FFFFFF" x="19.6286835" y="0.228121968" width="12.9522171" height="46.297577"></rect>
                                                </g>
                                                <g transform="translate(36.621264, 15.655429)" id="Rectangle-path">
                                                    <rect fill="#37F87A" x="0.33110931" y="0.409277648" width="51.5048993" height="46.297577"></rect>
                                                    <rect fill="#0CAB5E" transform="translate(58.678668, 23.558513) rotate(-180.000000) translate(-58.678668, -23.558513) " x="51.8348911" y="0.409724946" width="13.6875544" height="46.297577"></rect>
                                                    <rect fill="#17C671" x="0.33110931" y="7.72036307" width="51.5048993" height="2.43330099"></rect>
                                                    <rect fill="#17C671" transform="translate(58.678668, 8.940368) rotate(-180.000000) translate(-58.678668, -8.940368) " x="51.8348911" y="7.72371781" width="13.6875544" height="2.43330099"></rect>
                                                    <rect fill="#17C671" x="0.33110931" y="17.466986" width="51.5048993" height="2.43330099"></rect>
                                                    <rect fill="#17C671" transform="translate(58.678668, 18.686544) rotate(-180.000000) translate(-58.678668, -18.686544) " x="51.8348911" y="17.4698934" width="13.6875544" height="2.43330099"></rect>
                                                    <rect fill="#17C671" x="0.33110931" y="27.2136089" width="51.5048993" height="2.43330099"></rect>
                                                    <rect fill="#5D9350" transform="translate(58.678668, 28.432720) rotate(-180.000000) translate(-58.678668, -28.432720) " x="51.8348911" y="27.216069" width="13.6875544" height="2.43330099"></rect>
                                                    <rect fill="#17C671" x="0.33110931" y="36.9602318" width="51.5048993" height="2.43330099"></rect>
                                                    <rect fill="#5D9350" transform="translate(58.678668, 38.179119) rotate(-180.000000) translate(-58.678668, -38.179119) " x="51.8348911" y="36.9624683" width="13.6875544" height="2.43330099"></rect>
                                                    <rect fill="#FFFFFF" x="19.6063329" y="0.409277648" width="12.9522171" height="46.297577"></rect>
                                                </g>
                                                <g transform="translate(13.410406, 54.536037)" id="Rectangle-path">
                                                    <rect fill="#37F87A" x="0.138574195" y="0.515161836" width="51.5048993" height="46.297577"></rect>
                                                    <rect fill="#0CAB5E" transform="translate(58.487474, 23.663056) rotate(-180.000000) translate(-58.487474, -23.663056) " x="51.643697" y="0.51426724" width="13.6875544" height="46.297577"></rect>
                                                    <rect fill="#17C671" x="0.138574195" y="7.82624726" width="51.5048993" height="2.43330099"></rect>
                                                    <rect fill="#17C671" transform="translate(58.487474, 9.044687) rotate(-180.000000) translate(-58.487474, -9.044687) " x="51.643697" y="7.82803645" width="13.6875544" height="2.43330099"></rect>
                                                    <rect fill="#17C671" x="0.138574195" y="17.5728702" width="51.5048993" height="2.43330099"></rect>
                                                    <rect fill="#17C671" transform="translate(58.487474, 18.791086) rotate(-180.000000) translate(-58.487474, -18.791086) " x="51.643697" y="17.5744357" width="13.6875544" height="2.43330099"></rect>
                                                    <rect fill="#17C671" x="0.138574195" y="27.3194931" width="51.5048993" height="2.43330099"></rect>
                                                    <rect fill="#5D9350" transform="translate(58.487474, 28.537262) rotate(-180.000000) translate(-58.487474, -28.537262) " x="51.643697" y="27.3206113" width="13.6875544" height="2.43330099"></rect>
                                                    <rect fill="#17C671" x="0.138574195" y="37.066116" width="51.5048993" height="2.43330099"></rect>
                                                    <rect fill="#5D9350" transform="translate(58.487474, 38.283437) rotate(-180.000000) translate(-58.487474, -38.283437) " x="51.643697" y="37.0667869" width="13.6875544" height="2.43330099"></rect>
                                                    <rect fill="#E0D7C6" x="19.4160328" y="0.515161836" width="12.9522171" height="46.297577"></rect>
                                                </g>
                                                <g transform="translate(117.943882, 73.804166)" id="Rectangle-path">
                                                    <rect fill="#37F87A" x="0.19285441" y="0.740278151" width="51.5048993" height="46.297577"></rect>
                                                    <rect fill="#17C671" x="0.19285441" y="8.05136357" width="51.5048993" height="2.43330099"></rect>
                                                    <rect fill="#17C671" x="0.19285441" y="17.7979865" width="51.5048993" height="2.43330099"></rect>
                                                    <rect fill="#17C671" x="0.19285441" y="27.5446094" width="51.5048993" height="2.43330099"></rect>
                                                    <rect fill="#17C671" x="0.19285441" y="37.2912323" width="51.5048993" height="2.43330099"></rect>
                                                </g>
                                                <g transform="translate(78.227368, 35.267907)" id="Rectangle-path">
                                                    <rect fill="#37F87A" x="0.183275549" y="0.290045521" width="51.5048993" height="46.297577"></rect>
                                                    <rect fill="#17C671" x="0.183275549" y="7.60113094" width="51.5048993" height="2.43330099"></rect>
                                                    <rect fill="#17C671" x="0.183275549" y="17.3477538" width="51.5048993" height="2.43330099"></rect>
                                                    <rect fill="#17C671" x="0.183275549" y="27.0943767" width="51.5048993" height="2.43330099"></rect>
                                                    <rect fill="#17C671" x="0.183275549" y="36.8409997" width="51.5048993" height="2.43330099"></rect>
                                                    <rect fill="#FFFFFF" x="19.4607342" y="0.290045521" width="12.9522171" height="46.297577"></rect>
                                                </g>
                                                <g transform="translate(55.876692, 73.804166)" id="Rectangle-path">
                                                    <rect fill="#37F87A" x="0.514065563" y="0.740278151" width="51.5048993" height="46.297577"></rect>
                                                    <rect fill="#0CAB5E" transform="translate(58.861178, 23.887501) rotate(-180.000000) translate(-58.861178, -23.887501) " x="52.0174003" y="0.738712608" width="13.6875544" height="46.297577"></rect>
                                                    <rect fill="#17C671" x="0.514065563" y="8.05136357" width="51.5048993" height="2.43330099"></rect>
                                                    <rect fill="#17C671" transform="translate(58.861178, 9.269132) rotate(-180.000000) translate(-58.861178, -9.269132) " x="52.0174003" y="8.05248182" width="13.6875544" height="2.43330099"></rect>
                                                    <rect fill="#17C671" x="0.514065563" y="17.7979865" width="51.5048993" height="2.43330099"></rect>
                                                    <rect fill="#17C671" transform="translate(58.861178, 19.015308) rotate(-180.000000) translate(-58.861178, -19.015308) " x="52.0174003" y="17.7986574" width="13.6875544" height="2.43330099"></rect>
                                                    <rect fill="#17C671" x="0.514065563" y="27.5446094" width="51.5048993" height="2.43330099"></rect>
                                                    <rect fill="#17C671" transform="translate(58.861178, 28.761707) rotate(-180.000000) translate(-58.861178, -28.761707) " x="52.0174003" y="27.5450567" width="13.6875544" height="2.43330099"></rect>
                                                    <rect fill="#17C671" x="0.514065563" y="37.2912323" width="51.5048993" height="2.43330099"></rect>
                                                    <rect fill="#5D9350" transform="translate(58.861178, 38.507883) rotate(-180.000000) translate(-58.861178, -38.507883) " x="52.0174003" y="37.2912323" width="13.6875544" height="2.43330099"></rect>
                                                    <rect fill="#FFFFFF" x="19.7892891" y="0.740278151" width="12.9522171" height="46.297577"></rect>
                                                </g>
                                                <g transform="translate(0.000000, 93.932575)" id="Rectangle-path">
                                                    <rect fill="#17C671" x="0.23021197" y="0.102878535" width="51.5048993" height="46.297577"></rect>
                                                    <rect fill="#0CAB5E" transform="translate(58.577547, 23.253680) rotate(-180.000000) translate(-58.577547, -23.253680) " x="51.7337702" y="0.104891375" width="13.6875544" height="46.297577"></rect>
                                                    <rect fill="#17C671" x="0.23021197" y="7.41620045" width="51.5048993" height="2.43330099"></rect>
                                                    <rect fill="#17C671" transform="translate(58.577547, 8.633298) rotate(-180.000000) translate(-58.577547, -8.633298) " x="51.7337702" y="7.41664774" width="13.6875544" height="2.43330099"></rect>
                                                    <rect fill="#6BA35D" x="0.23021197" y="17.1628233" width="51.5048993" height="2.43330099"></rect>
                                                    <rect fill="#5D9350" transform="translate(58.577547, 18.379474) rotate(-180.000000) translate(-58.577547, -18.379474) " x="51.7337702" y="17.1628233" width="13.6875544" height="2.43330099"></rect>
                                                    <rect fill="#6BA35D" x="0.23021197" y="26.9094463" width="51.5048993" height="2.43330099"></rect>
                                                    <rect fill="#5D9350" transform="translate(58.577547, 28.125873) rotate(-180.000000) translate(-58.577547, -28.125873) " x="51.7337702" y="26.9092226" width="13.6875544" height="2.43330099"></rect>
                                                    <rect fill="#E0D7C6" x="19.5054355" y="0.102878535" width="12.9522171" height="46.297577"></rect>
                                                </g>
                                                <g transform="translate(46.936421, 112.684774)" id="Rectangle-path">
                                                    <rect fill="#37F87A" x="0.625818947" y="0.843925848" width="51.5048993" height="46.297577"></rect>
                                                    <rect fill="#0CAB5E" transform="translate(58.972931, 23.994056) rotate(-180.000000) translate(-58.972931, -23.994056) " x="52.1291537" y="0.845267742" width="13.6875544" height="46.297577"></rect>
                                                    <rect fill="#17C671" x="0.625818947" y="8.15724776" width="51.5048993" height="2.43330099"></rect>
                                                    <rect fill="#5D9350" transform="translate(58.972931, 9.373675) rotate(-180.000000) translate(-58.972931, -9.373675) " x="52.1291537" y="8.15702411" width="13.6875544" height="2.43330099"></rect>
                                                    <rect fill="#FFFFFF" x="19.9010425" y="0.843925848" width="12.9522171" height="46.297577"></rect>
                                                </g>
                                                <g transform="translate(96.107910, 103.738814)" id="Rectangle-path">
                                                    <rect fill="#37F87A" x="0.84262051" y="0.0432624709" width="51.5048993" height="46.297577"></rect>
                                                    <rect fill="#17C671" x="0.84262051" y="7.35658438" width="51.5048993" height="2.43330099"></rect>
                                                    <rect fill="#17C671" x="0.84262051" y="17.1032073" width="51.5048993" height="2.43330099"></rect>
                                                    <rect fill="#FFFFFF" x="20.1200791" y="0.0432624709" width="12.9522171" height="46.297577"></rect>
                                                </g>
                                            </g>
                                            <g id="Group" transform="translate(19.762468, 258.914529)" fill-rule="nonzero">
                                                <g transform="translate(97.293134, 0.000000)" id="Rectangle-path">
                                                    <rect fill="#37F87A" x="0.216801564" y="0.489791284" width="51.5048993" height="46.297577"></rect>
                                                    <rect fill="#0CAB5E" transform="translate(58.565255, 23.640145) rotate(-180.000000) translate(-58.565255, -23.640145) " x="51.7214774" y="0.491356827" width="13.6875544" height="46.297577"></rect>
                                                    <rect fill="#17C671" x="0.216801564" y="7.8031132" width="51.5048993" height="2.43330099"></rect>
                                                    <rect fill="#17C671" transform="translate(58.565255, 9.019540) rotate(-180.000000) translate(-58.565255, -9.019540) " x="51.7214774" y="7.80288955" width="13.6875544" height="2.43330099"></rect>
                                                    <rect fill="#17C671" x="0.216801564" y="17.5497361" width="51.5048993" height="2.43330099"></rect>
                                                    <rect fill="#17C671" transform="translate(58.565255, 18.765716) rotate(-180.000000) translate(-58.565255, -18.765716) " x="51.7214774" y="17.5490652" width="13.6875544" height="2.43330099"></rect>
                                                    <rect fill="#17C671" x="0.216801564" y="27.296359" width="51.5048993" height="2.43330099"></rect>
                                                    <rect fill="#17C671" transform="translate(58.565255, 28.512115) rotate(-180.000000) translate(-58.565255, -28.512115) " x="51.7214774" y="27.2954644" width="13.6875544" height="2.43330099"></rect>
                                                    <rect fill="#6BA35D" x="0.216801564" y="37.0407454" width="51.5048993" height="2.43330099"></rect>
                                                    <rect fill="#5D9350" transform="translate(58.565255, 38.260527) rotate(-180.000000) translate(-58.565255, -38.260527) " x="51.7214774" y="37.0438765" width="13.6875544" height="2.43330099"></rect>
                                                    <rect fill="#FFFFFF" x="19.4920251" y="0.489791284" width="12.9522171" height="46.297577"></rect>
                                                </g>
                                                <g transform="translate(136.853832, 35.112891)" id="Rectangle-path">
                                                    <rect fill="#37F87A" x="0.820269834" y="0.706730802" width="51.5048993" height="46.297577"></rect>
                                                    <rect fill="#74AF68" transform="translate(59.168052, 23.856861) rotate(-180.000000) translate(-59.168052, -23.856861) " x="52.3242751" y="0.708072696" width="13.6875544" height="46.297577"></rect>
                                                    <rect fill="#17C671" x="0.820269834" y="8.02005271" width="51.5048993" height="2.43330099"></rect>
                                                    <rect fill="#5D9350" transform="translate(59.168052, 9.236256) rotate(-180.000000) translate(-59.168052, -9.236256) " x="52.3242751" y="8.01960542" width="13.6875544" height="2.43330099"></rect>
                                                    <rect fill="#17C671" x="0.820269834" y="17.7666756" width="51.5048993" height="2.43330099"></rect>
                                                    <rect fill="#5D9350" transform="translate(59.168052, 18.982655) rotate(-180.000000) translate(-59.168052, -18.982655) " x="52.3242751" y="17.7660047" width="13.6875544" height="2.43330099"></rect>
                                                    <rect fill="#17C671" x="0.820269834" y="27.511062" width="51.5048993" height="2.43330099"></rect>
                                                    <rect fill="#5D9350" transform="translate(59.168052, 28.731067) rotate(-180.000000) translate(-59.168052, -28.731067) " x="52.3242751" y="27.5144168" width="13.6875544" height="2.43330099"></rect>
                                                    <rect fill="#17C671" x="0.820269834" y="37.2576849" width="51.5048993" height="2.43330099"></rect>
                                                    <rect fill="#5D9350" transform="translate(59.168052, 38.477243) rotate(-180.000000) translate(-59.168052, -38.477243) " x="52.3242751" y="37.2605924" width="13.6875544" height="2.43330099"></rect>
                                                    <rect fill="#FFFFFF" x="20.0954934" y="0.706730802" width="12.9522171" height="46.297577"></rect>
                                                </g>
                                                <g transform="translate(199.435727, 94.121907)" id="Rectangle-path">
                                                    <rect fill="#37F87A" x="0.679460571" y="0.177451864" width="51.5048993" height="46.297577"></rect>
                                                    <rect fill="#0CAB5E" transform="translate(59.029255, 23.325346) rotate(-180.000000) translate(-59.029255, -23.325346) " x="52.1854774" y="0.176557268" width="13.6875544" height="46.297577"></rect>
                                                    <rect fill="#17C671" x="0.679460571" y="7.48853729" width="51.5048993" height="2.43330099"></rect>
                                                    <rect fill="#17C671" transform="translate(59.029255, 8.707201) rotate(-180.000000) translate(-59.029255, -8.707201) " x="52.1854774" y="7.49055013" width="13.6875544" height="2.43330099"></rect>
                                                    <rect fill="#17C671" x="0.679460571" y="17.2351602" width="51.5048993" height="2.43330099"></rect>
                                                    <rect fill="#17C671" transform="translate(59.029255, 18.453376) rotate(-180.000000) translate(-59.029255, -18.453376) " x="52.1854774" y="17.2367257" width="13.6875544" height="2.43330099"></rect>
                                                    <rect fill="#E0D7C6" x="19.9569192" y="0.177451864" width="12.9522171" height="46.297577"></rect>
                                                </g>
                                                <g transform="translate(173.475096, 55.241300)" id="Rectangle-path">
                                                    <rect fill="#37F87A" x="0.601552498" y="0.0715676762" width="51.5048993" height="46.297577"></rect>
                                                    <rect fill="#74AF68" transform="translate(58.948664, 23.221027) rotate(-180.000000) translate(-58.948664, -23.221027) " x="52.1048873" y="0.0722386232" width="13.6875544" height="46.297577"></rect>
                                                    <rect fill="#17C671" x="0.601552498" y="7.3826531" width="51.5048993" height="2.43330099"></rect>
                                                    <rect fill="#5D9350" transform="translate(58.948664, 8.602658) rotate(-180.000000) translate(-58.948664, -8.602658) " x="52.1048873" y="7.38600783" width="13.6875544" height="2.43330099"></rect>
                                                    <rect fill="#17C671" x="0.601552498" y="17.129276" width="51.5048993" height="2.43330099"></rect>
                                                    <rect fill="#5D9350" transform="translate(58.948664, 18.348834) rotate(-180.000000) translate(-58.948664, -18.348834) " x="52.1048873" y="17.1321834" width="13.6875544" height="2.43330099"></rect>
                                                    <rect fill="#17C671" x="0.601552498" y="26.8758989" width="51.5048993" height="2.43330099"></rect>
                                                    <rect fill="#5D9350" transform="translate(58.948664, 28.095233) rotate(-180.000000) translate(-58.948664, -28.095233) " x="52.1048873" y="26.8785827" width="13.6875544" height="2.43330099"></rect>
                                                    <rect fill="#17C671" x="0.601552498" y="36.6225218" width="51.5048993" height="2.43330099"></rect>
                                                    <rect fill="#5D9350" transform="translate(58.948664, 37.841409) rotate(-180.000000) translate(-58.948664, -37.841409) " x="52.1048873" y="36.6247583" width="13.6875544" height="2.43330099"></rect>
                                                    <rect fill="#E0D7C6" x="19.8767761" y="0.0715676762" width="12.9522171" height="46.297577"></rect>
                                                </g>
                                                <g transform="translate(156.454737, 94.121907)" id="Rectangle-path">
                                                    <rect fill="#17C671" x="0.110156906" y="0.177451864" width="51.5048993" height="46.297577"></rect>
                                                    <rect fill="#0CAB5E" transform="translate(58.457716, 23.325346) rotate(-180.000000) translate(-58.457716, -23.325346) " x="51.6139387" y="0.176557268" width="13.6875544" height="46.297577"></rect>
                                                    <rect fill="#6BA35D" x="0.110156906" y="7.48853729" width="51.5048993" height="2.43330099"></rect>
                                                    <rect fill="#17C671" transform="translate(58.457716, 8.707201) rotate(-180.000000) translate(-58.457716, -8.707201) " x="51.6139387" y="7.49055013" width="13.6875544" height="2.43330099"></rect>
                                                    <rect fill="#6BA35D" x="0.110156906" y="17.2351602" width="51.5048993" height="2.43330099"></rect>
                                                    <rect fill="#17C671" transform="translate(58.457716, 18.453376) rotate(-180.000000) translate(-58.457716, -18.453376) " x="51.6139387" y="17.2367257" width="13.6875544" height="2.43330099"></rect>
                                                    <rect fill="#E0D7C6" x="19.3853805" y="0.177451864" width="12.9522171" height="46.297577"></rect>
                                                </g>
                                                <g transform="translate(37.135969, 15.844762)" id="Rectangle-path">
                                                    <rect fill="#37F87A" x="0.00702449838" y="0.481614488" width="51.5048993" height="46.297577"></rect>
                                                    <rect fill="#0CAB5E" transform="translate(58.355254, 23.632416) rotate(-180.000000) translate(-58.355254, -23.632416) " x="51.5114768" y="0.483627329" width="13.6875544" height="46.297577"></rect>
                                                    <rect fill="#17C671" x="0.00702449838" y="7.7949364" width="51.5048993" height="2.43330099"></rect>
                                                    <rect fill="#17C671" transform="translate(58.355254, 9.012034) rotate(-180.000000) translate(-58.355254, -9.012034) " x="51.5114768" y="7.7953837" width="13.6875544" height="2.43330099"></rect>
                                                    <rect fill="#17C671" x="0.00702449838" y="17.5415593" width="51.5048993" height="2.43330099"></rect>
                                                    <rect fill="#17C671" transform="translate(58.355254, 18.758210) rotate(-180.000000) translate(-58.355254, -18.758210) " x="51.5114768" y="17.5415593" width="13.6875544" height="2.43330099"></rect>
                                                    <rect fill="#17C671" x="0.00702449838" y="27.2881822" width="51.5048993" height="2.43330099"></rect>
                                                    <rect fill="#5D9350" transform="translate(58.355254, 28.504385) rotate(-180.000000) translate(-58.355254, -28.504385) " x="51.5114768" y="27.2877349" width="13.6875544" height="2.43330099"></rect>
                                                    <rect fill="#17C671" x="0.00702449838" y="37.0348051" width="51.5048993" height="2.43330099"></rect>
                                                    <rect fill="#5D9350" transform="translate(58.355254, 38.250785) rotate(-180.000000) translate(-58.355254, -38.250785) " x="51.5114768" y="37.0341342" width="13.6875544" height="2.43330099"></rect>
                                                    <rect fill="#FFFFFF" x="19.2822481" y="0.481614488" width="12.9522171" height="46.297577"></rect>
                                                </g>
                                                <g transform="translate(13.410406, 55.241300)" id="Rectangle-path">
                                                    <rect fill="#37F87A" x="0.329193538" y="0.0715676762" width="51.5048993" height="46.297577"></rect>
                                                    <rect fill="#0CAB5E" transform="translate(58.676306, 23.221027) rotate(-180.000000) translate(-58.676306, -23.221027) " x="51.8325283" y="0.0722386232" width="13.6875544" height="46.297577"></rect>
                                                    <rect fill="#17C671" x="0.329193538" y="7.3826531" width="51.5048993" height="2.43330099"></rect>
                                                    <rect fill="#17C671" transform="translate(58.676306, 8.602658) rotate(-180.000000) translate(-58.676306, -8.602658) " x="51.8325283" y="7.38600783" width="13.6875544" height="2.43330099"></rect>
                                                    <rect fill="#17C671" x="0.329193538" y="17.129276" width="51.5048993" height="2.43330099"></rect>
                                                    <rect fill="#17C671" transform="translate(58.676306, 18.348834) rotate(-180.000000) translate(-58.676306, -18.348834) " x="51.8325283" y="17.1321834" width="13.6875544" height="2.43330099"></rect>
                                                    <rect fill="#17C671" x="0.329193538" y="26.8758989" width="51.5048993" height="2.43330099"></rect>
                                                    <rect fill="#5D9350" transform="translate(58.676306, 28.095233) rotate(-180.000000) translate(-58.676306, -28.095233) " x="51.8325283" y="26.8785827" width="13.6875544" height="2.43330099"></rect>
                                                    <rect fill="#17C671" x="0.329193538" y="36.6225218" width="51.5048993" height="2.43330099"></rect>
                                                    <rect fill="#5D9350" transform="translate(58.676306, 37.841409) rotate(-180.000000) translate(-58.676306, -37.841409) " x="51.8325283" y="36.6247583" width="13.6875544" height="2.43330099"></rect>
                                                    <rect fill="#FFFFFF" x="19.6044171" y="0.0715676762" width="12.9522171" height="46.297577"></rect>
                                                </g>
                                                <g transform="translate(117.598405, 73.993499)" id="Rectangle-path">
                                                    <rect fill="#37F87A" x="0.728951355" y="0.81261499" width="51.5048993" height="46.297577"></rect>
                                                    <rect fill="#0CAB5E" transform="translate(59.075840, 23.961180) rotate(-180.000000) translate(-59.075840, -23.961180) " x="52.2320626" y="0.812391341" width="13.6875544" height="46.297577"></rect>
                                                    <rect fill="#17C671" x="0.728951355" y="8.12370041" width="51.5048993" height="2.43330099"></rect>
                                                    <rect fill="#17C671" transform="translate(59.075840, 9.343035) rotate(-180.000000) translate(-59.075840, -9.343035) " x="52.2320626" y="8.1263842" width="13.6875544" height="2.43330099"></rect>
                                                    <rect fill="#17C671" x="0.728951355" y="17.8703233" width="51.5048993" height="2.43330099"></rect>
                                                    <rect fill="#17C671" transform="translate(59.075840, 19.089210) rotate(-180.000000) translate(-59.075840, -19.089210) " x="52.2320626" y="17.8725598" width="13.6875544" height="2.43330099"></rect>
                                                    <rect fill="#17C671" x="0.728951355" y="27.6169462" width="51.5048993" height="2.43330099"></rect>
                                                    <rect fill="#17C671" transform="translate(59.075840, 28.835610) rotate(-180.000000) translate(-59.075840, -28.835610) " x="52.2320626" y="27.6189591" width="13.6875544" height="2.43330099"></rect>
                                                    <rect fill="#17C671" x="0.728951355" y="37.3635691" width="51.5048993" height="2.43330099"></rect>
                                                    <rect fill="#17C671" transform="translate(59.075840, 38.581785) rotate(-180.000000) translate(-59.075840, -38.581785) " x="52.2320626" y="37.3651347" width="13.6875544" height="2.43330099"></rect>
                                                    <rect fill="#FFFFFF" x="20.0041749" y="0.81261499" width="12.9522171" height="46.297577"></rect>
                                                </g>
                                                <g transform="translate(78.227368, 35.112891)" id="Rectangle-path">
                                                    <rect fill="#37F87A" x="0.373894891" y="0.706730802" width="51.5048993" height="46.297577"></rect>
                                                    <rect fill="#0CAB5E" transform="translate(58.722348, 23.856861) rotate(-180.000000) translate(-58.722348, -23.856861) " x="51.8785707" y="0.708072696" width="13.6875544" height="46.297577"></rect>
                                                    <rect fill="#17C671" x="0.373894891" y="8.02005271" width="51.5048993" height="2.43330099"></rect>
                                                    <rect fill="#17C671" transform="translate(58.722348, 9.236256) rotate(-180.000000) translate(-58.722348, -9.236256) " x="51.8785707" y="8.01960542" width="13.6875544" height="2.43330099"></rect>
                                                    <rect fill="#17C671" x="0.373894891" y="17.7666756" width="51.5048993" height="2.43330099"></rect>
                                                    <rect fill="#17C671" transform="translate(58.722348, 18.982655) rotate(-180.000000) translate(-58.722348, -18.982655) " x="51.8785707" y="17.7660047" width="13.6875544" height="2.43330099"></rect>
                                                    <rect fill="#17C671" x="0.373894891" y="27.511062" width="51.5048993" height="2.43330099"></rect>
                                                    <rect fill="#17C671" transform="translate(58.722348, 28.731067) rotate(-180.000000) translate(-58.722348, -28.731067) " x="51.8785707" y="27.5144168" width="13.6875544" height="2.43330099"></rect>
                                                    <rect fill="#17C671" x="0.373894891" y="37.2576849" width="51.5048993" height="2.43330099"></rect>
                                                    <rect fill="#17C671" transform="translate(58.722348, 38.477243) rotate(-180.000000) translate(-58.722348, -38.477243) " x="51.8785707" y="37.2605924" width="13.6875544" height="2.43330099"></rect>
                                                    <rect fill="#FFFFFF" x="19.6491185" y="0.706730802" width="12.9522171" height="46.297577"></rect>
                                                </g>
                                                <g transform="translate(56.391396, 73.993499)" id="Rectangle-path">
                                                    <rect fill="#37F87A" x="0.187745684" y="0.81261499" width="51.5048993" height="46.297577"></rect>
                                                    <rect fill="#0CAB5E" transform="translate(58.537540, 23.961180) rotate(-180.000000) translate(-58.537540, -23.961180) " x="51.6937625" y="0.812391341" width="13.6875544" height="46.297577"></rect>
                                                    <rect fill="#17C671" x="0.187745684" y="8.12370041" width="51.5048993" height="2.43330099"></rect>
                                                    <rect fill="#17C671" transform="translate(58.537540, 9.343035) rotate(-180.000000) translate(-58.537540, -9.343035) " x="51.6937625" y="8.1263842" width="13.6875544" height="2.43330099"></rect>
                                                    <rect fill="#17C671" x="0.187745684" y="17.8703233" width="51.5048993" height="2.43330099"></rect>
                                                    <rect fill="#17C671" transform="translate(58.537540, 19.089210) rotate(-180.000000) translate(-58.537540, -19.089210) " x="51.6937625" y="17.8725598" width="13.6875544" height="2.43330099"></rect>
                                                    <rect fill="#17C671" x="0.187745684" y="27.6169462" width="51.5048993" height="2.43330099"></rect>
                                                    <rect fill="#17C671" transform="translate(58.537540, 28.835610) rotate(-180.000000) translate(-58.537540, -28.835610) " x="51.6937625" y="27.6189591" width="13.6875544" height="2.43330099"></rect>
                                                    <rect fill="#17C671" x="0.187745684" y="37.3635691" width="51.5048993" height="2.43330099"></rect>
                                                    <rect fill="#5D9350" transform="translate(58.537540, 38.581785) rotate(-180.000000) translate(-58.537540, -38.581785) " x="51.6937625" y="37.3651347" width="13.6875544" height="2.43330099"></rect>
                                                    <rect fill="#FFFFFF" x="19.4652043" y="0.81261499" width="12.9522171" height="46.297577"></rect>
                                                </g>
                                                <g transform="translate(0.000000, 94.121907)" id="Rectangle-path">
                                                    <rect fill="#37F87A" x="0.420831312" y="0.177451864" width="51.5048993" height="46.297577"></rect>
                                                    <rect fill="#0CAB5E" transform="translate(58.768614, 23.325346) rotate(-180.000000) translate(-58.768614, -23.325346) " x="51.9248366" y="0.176557268" width="13.6875544" height="46.297577"></rect>
                                                    <rect fill="#17C671" x="0.420831312" y="7.48853729" width="51.5048993" height="2.43330099"></rect>
                                                    <rect fill="#17C671" transform="translate(58.768614, 8.707201) rotate(-180.000000) translate(-58.768614, -8.707201) " x="51.9248366" y="7.49055013" width="13.6875544" height="2.43330099"></rect>
                                                    <rect fill="#17C671" x="0.420831312" y="17.2351602" width="51.5048993" height="2.43330099"></rect>
                                                    <rect fill="#17C671" transform="translate(58.768614, 18.453376) rotate(-180.000000) translate(-58.768614, -18.453376) " x="51.9248366" y="17.2367257" width="13.6875544" height="2.43330099"></rect>
                                                    <rect fill="#FFFFFF" x="19.6960549" y="0.177451864" width="12.9522171" height="46.297577"></rect>
                                                </g>
                                                <g transform="translate(47.451125, 113.390037)" id="Rectangle-path">
                                                    <rect fill="#37F87A" x="0.299499067" y="0.402568179" width="51.5048993" height="46.297577"></rect>
                                                    <rect fill="#0CAB5E" transform="translate(58.649293, 23.549791) rotate(-180.000000) translate(-58.649293, -23.549791) " x="51.8055159" y="0.401002636" width="13.6875544" height="46.297577"></rect>
                                                    <rect fill="#FFFFFF" x="19.5769577" y="0.402568179" width="12.9522171" height="46.297577"></rect>
                                                </g>
                                                <g transform="translate(96.622614, 103.928146)" id="Rectangle-path">
                                                    <rect fill="#37F87A" x="0.518535699" y="0.1178358" width="51.5048993" height="46.297577"></rect>
                                                    <rect fill="#0CAB5E" transform="translate(58.866765, 23.265506) rotate(-180.000000) translate(-58.866765, -23.265506) " x="52.022988" y="0.116717555" width="13.6875544" height="46.297577"></rect>
                                                    <rect fill="#17C671" x="0.518535699" y="7.42892122" width="51.5048993" height="2.43330099"></rect>
                                                    <rect fill="#17C671" transform="translate(58.866765, 8.647137) rotate(-180.000000) translate(-58.866765, -8.647137) " x="52.022988" y="7.43048677" width="13.6875544" height="2.43330099"></rect>
                                                    <rect fill="#FFFFFF" x="19.7959943" y="0.1178358" width="12.9522171" height="46.297577"></rect>
                                                </g>
                                            </g>
                                            <path d="M82.2891249,128.42429 C82.2891249,128.42429 78.131899,123.763445 72.9666576,121.750604 C67.8014163,119.735527 57.0797967,120.464622 55.7074651,121.750604 C54.6592184,122.732423 54.9520123,124.11681 57.2183709,124.445574 C59.4869645,124.774338 64.2744795,125.655515 61.5029956,126.411449 C58.7315117,127.167383 51.8028019,128.67925 45.1244197,129.307703 C38.4482726,129.938394 37.6905847,132.456681 42.7306622,134.722245 C47.7707398,136.990046 60.3698163,142.529832 73.5969467,141.773898 C86.8240772,141.017964 86.1960232,136.484599 86.1960232,136.484599 L82.2891249,128.42429 Z" id="Shape" fill="#FFEB91" fill-rule="nonzero"></path>
                                            <path d="M276.697546,222.014682 C276.697546,222.014682 275.539781,257.398188 269.621321,308.832983 C269.046909,313.822592 268.166292,318.769707 267.866793,323.761553 C266.78055,341.532701 267.93608,385.045848 265.627255,403.487944 C258.307409,398.543065 237.914651,403.487944 237.914651,403.487944 L238.283438,314.958729 C238.283438,314.958729 236.019314,261.900243 232.972917,247.803647 C229.946635,262.662886 227.937309,314.958729 227.937309,314.958729 L228.306096,403.487944 C228.306096,403.487944 207.913338,398.543065 200.593492,403.487944 C198.284667,385.045848 199.437962,341.532701 198.353954,323.761553 C198.054455,318.769707 197.207364,313.818119 196.599426,308.832983 C191.28667,265.362329 189.664011,221.954297 189.664011,221.954297 C206.152105,206.218354 219.622858,202.163598 233.086905,202.879275 L233.109256,204.798183 L233.131607,202.879275 C246.597889,202.161361 260.209451,206.278739 276.697546,222.014682 Z" id="Shape" fill="#723CF5" fill-rule="nonzero"></path>
                                            <path d="M290.3851,87.2281463 C290.3851,87.2281463 301.895699,103.438225 314.964139,106.828744 C327.750961,110.145458 346.279672,117.727159 354.176166,119.362033 C362.07266,120.996907 391.481681,124.812359 391.481681,124.812359 C391.481681,124.812359 391.108424,141.295289 390.019946,144.837889 C386.258328,145.786161 364.296553,141.062694 361.844683,141.062694 C359.395049,141.062694 305.706489,138.709907 290.456622,128.354959 C275.208991,118.000011 282.761284,91.3164499 290.3851,87.2281463 Z" id="Shape" fill="#8252F7" fill-rule="nonzero"></path>
                                            <path d="M184.990484,83.8980129 C184.990484,83.8980129 177.449366,97.2923508 168.737072,101.105566 C160.022543,104.921018 132.792714,119.896554 79.9668896,122.89345 C79.9668896,122.89345 81.8734023,131.62247 77.7876986,143.612293 C77.7876986,143.612293 134.426548,140.888248 141.507243,138.161967 L145.780692,136.949789 C147.108322,136.571823 148.440423,136.260951 149.799344,136.014937 C156.826397,134.733428 180.55611,130.19559 184.259617,126.720085 C188.615764,122.634018 199.151873,90.1646576 184.990484,83.8980129 Z" id="Shape" fill="#723CF5" fill-rule="nonzero"></path>
                                            <path d="M259.563517,32.8009286 C259.353421,42.5363691 253.434961,69.298207 238.091222,68.96497 C222.747482,68.631733 217.993493,41.6395366 218.20359,31.9040962 C218.413686,22.1686557 227.843437,14.477367 239.264632,14.7233809 C250.688063,14.9716313 259.775848,23.0654881 259.563517,32.8009286 Z" id="Shape" fill="#FFEB91" fill-rule="nonzero"></path>
                                            <path d="M257.822399,82.7820045 C243.211762,73.6302879 249.724749,54.0811298 249.724749,54.0811298 L226.78625,53.5846291 C226.78625,53.5846291 232.445441,73.3976929 217.454842,81.9075369 C210.248984,85.9958404 264.844982,87.1811801 257.822399,82.7820045 Z" id="Shape" fill="#FFEB91" fill-rule="nonzero"></path>
                                            <path d="M219.162434,14.1195286 C219.162434,14.1195286 226.875652,18.0087845 222.459159,26.5007366 C219.515574,32.1612925 219.710025,42.1830036 219.654149,44.7348386 C219.654149,44.7348386 213.75804,37.4505911 214.006133,26.0064723 C214.142472,19.786794 213.129986,13.9898122 219.162434,14.1195286 Z" id="Shape" fill="#0E2D45" fill-rule="nonzero"></path>
                                            <path d="M256.555116,13.1802029 C256.555116,13.1802029 252.107331,16.8301544 254.71789,25.8275531 C256.459008,31.8280555 256.201975,42.9165723 256.143863,45.5735223 C256.143863,45.5735223 260.736927,38.2199436 260.99396,26.301689 C261.186176,17.3669119 259.357891,13.2405881 256.555116,13.1802029 Z" id="Shape" fill="#1C4B6E" fill-rule="nonzero"></path>
                                            <path d="M221.299158,26.9793454 C221.299158,26.9793454 218.668484,22.1037975 216.663628,18.0445684 C214.656537,13.9853392 218.655073,1.34246193 234.629102,0.32709552 C246.278275,-0.413182631 257.679355,3.77128994 257.455848,14.0144136 C257.299393,21.211438 250.721589,23.8080028 233.797657,26.0131818 C225.650835,27.073278 221.299158,26.9793454 221.299158,26.9793454 Z" id="Shape" fill="#0E2D45" fill-rule="nonzero"></path>
                                            <ellipse id="Oval" fill="#FFEB91" fill-rule="nonzero" transform="translate(256.030402, 43.528098) rotate(-82.541666) translate(-256.030402, -43.528098) " cx="256.030402" cy="43.5280978" rx="6.03891214" ry="3.18239826"></ellipse>
                                            <ellipse id="Oval" fill="#FFEB91" fill-rule="nonzero" transform="translate(219.484068, 43.513288) rotate(-7.458334) translate(-219.484068, -43.513288) " cx="219.484068" cy="43.5132875" rx="3.18037453" ry="6.04275481"></ellipse>
                                            <polygon id="Shape" fill="#EFEFEF" fill-rule="nonzero" points="248.826252 69.2244028 252.339778 78.8614377 263.31396 91.1867334 274.471418 104.858396 246.886213 139.150495 218.19912 113.332456 212.501932 81.1717317 220.872261 72.7468744 239.20205 75.7795546"></polygon>
                                            <path d="M252.339778,78.8614377 L263.31396,91.1867334 L274.471418,104.858396 L246.886213,139.150495 L218.19912,113.332456 L212.504167,81.1717317 L220.872261,72.7468744 L221.270103,72.3174683 C229.698543,87.1699976 246.430259,100.392126 252.339778,78.8614377 Z" id="Shape" fill="#EFF3F3" fill-rule="nonzero"></path>
                                            <path d="M220.872261,72.7468744 C220.872261,72.7468744 213.610526,79.5346212 203.592952,79.0358839 C196.013838,79.8566757 189.051602,81.9097734 186.065552,82.875937 C185.19164,83.1599713 184.686515,84.0389118 184.86532,84.9402172 C185.806284,89.6860487 188.077113,107.323008 182.896226,119.491749 L184.257382,126.717848 C184.257382,126.717848 198.961892,147.69836 195.966901,173.040027 C192.971911,198.379457 185.075417,232.441198 185.075417,232.441198 C185.075417,232.441198 232.729294,232.168346 238.991954,222.359101 C245.254614,212.549857 248.43288,140.210592 247.706483,136.256478 C246.980086,132.300127 232.729294,118.545714 228.373148,114.457411 C224.017001,110.369107 211.158656,97.5428377 220.872261,72.7468744 Z" id="Shape" fill="#723CF5" fill-rule="nonzero"></path>
                                            <path d="M247.791415,138.130656 C245.13392,133.248399 232.977387,125.335697 217.729755,111.995035 C202.482124,98.6543732 199.496073,85.0296768 199.496073,85.0296768 L208.492221,82.0439628 L203.590717,79.0358839 C211.281585,78.2083827 220.827559,72.7692393 220.870025,72.7468744 C212.790256,97.685973 224.023706,110.382526 228.382088,114.457411 C232.738235,118.534532 246.986791,132.309073 247.704248,136.256478 C247.748949,136.540512 247.791415,137.193567 247.791415,138.130656 Z" id="Shape" fill="#8252F7" fill-rule="nonzero"></path>
                                            <path d="M241.356656,142.044513 L241.379006,142.022148 C241.356656,142.066878 241.356656,142.111608 241.356656,142.133973 C241.334305,142.223433 241.334305,142.201068 241.356656,142.044513 Z" id="Shape" fill="#F8CABF" fill-rule="nonzero"></path>
                                            <path d="M227.161741,67.7483195 C227.161741,67.7483195 221.737232,71.5928456 220.872261,72.7491109 C220.872261,72.7491109 220.449833,81.0196504 222.903937,84.1954661 C222.903937,84.1954661 235.368909,75.1846483 239.121588,75.7616627 C242.874267,76.3386771 251.336233,80.6729945 255.953883,85.2935826 C255.953883,85.2935826 252.163208,73.1964088 248.745789,69.2042744 L239.121588,75.7594262 L227.161741,67.7483195 Z" id="Shape" fill="#FFFFFF" fill-rule="nonzero"></path>
                                            <path d="M250.030953,70.8682229 C250.030953,70.8682229 261.738238,80.4247441 288.23273,85.9444012 C289.609532,86.2306719 290.733771,87.2438018 291.104792,88.6013511 C292.86379,95.0491515 297.15959,114.269546 290.456622,128.352722 C282.28745,145.517782 276.02479,164.592804 277.658625,181.214397 C279.292459,197.83599 282.832806,222.359101 282.560128,230.806324 C282.560128,230.806324 251.716194,231.352027 246.034652,221.542783 C240.35311,211.733538 241.16891,139.989179 241.16891,139.989179 C241.16891,139.989179 269.167603,106.287513 269.415695,100.566572 C269.663788,94.8456309 255.947177,86.5303615 254.820703,82.5807204 C253.696464,78.6288428 250.030953,70.8682229 250.030953,70.8682229 Z" id="Shape" fill="#8252F7" fill-rule="nonzero"></path>
                                            <path d="M274.390956,109.009321 C269.663788,114.76381 251.038969,129.173514 243.935924,136.366066 C250.645597,127.471545 267.397429,104.867342 267.616466,100.289247 C267.855618,94.5571237 257.142939,86.870308 256.03658,85.3114745 C252.100626,79.7739256 249.832032,70.7116686 249.832032,70.7116686 C250.180703,70.9957028 256.841204,75.1175536 264.509722,78.3224436 L257.922977,82.0439628 L270.034809,83.3948027 C270.034809,83.3948027 268.771996,87.9281677 271.123287,91.0234697 C273.476813,94.1210082 280.206602,101.924121 274.390956,109.009321 Z" id="Shape" fill="#946FF1" fill-rule="nonzero"></path>
                                            <ellipse id="Oval" fill="#5967A6" fill-rule="nonzero" cx="247.740009" cy="143.614529" rx="3.44423927" ry="3.44643091"></ellipse>
                                            <ellipse id="Oval" fill="#5967A6" fill-rule="nonzero" cx="247.807061" cy="167.059653" rx="3.37718724" ry="3.37933621"></ellipse>
                                            <ellipse id="Oval" fill="#5967A6" fill-rule="nonzero" cx="248.683207" cy="190.361641" rx="3.6565707" ry="3.65889745"></ellipse>
                                        </g>
                                    </g>
                                </g>
                            </g>
                        </g>
                    </g>
                </g>
            </g>
        </g>
    </g>
</svg>