<?xml version="1.0" encoding="UTF-8"?>
<svg width="607px" height="456px" viewBox="0 0 607 456" version="1.1" xmlns="http://www.w3.org/2000/svg" xmlns:xlink="http://www.w3.org/1999/xlink">
    <!-- Generator: sketchtool 50.2 (55047) - http://www.bohemiancoding.com/sketch -->
    <title>0E936DED-9108-48F4-A78F-0BC0E690DAF7</title>
    <desc>Created with sketchtool.</desc>
    <defs>
        <rect id="path-1" x="0" y="0" width="470" height="370" rx="10"></rect>
        <filter x="-8.5%" y="-5.4%" width="117.0%" height="121.6%" filterUnits="objectBoundingBox" id="filter-2">
            <feOffset dx="0" dy="20" in="SourceAlpha" result="shadowOffsetOuter1"></feOffset>
            <feGaussianBlur stdDeviation="10" in="shadowOffsetOuter1" result="shadowBlurOuter1"></feGaussianBlur>
            <feComposite in="shadowBlurOuter1" in2="SourceAlpha" operator="out" result="shadowBlurOuter1"></feComposite>
            <feColorMatrix values="0 0 0 0 0   0 0 0 0 0   0 0 0 0 0  0 0 0 0.1 0" type="matrix" in="shadowBlurOuter1"></feColorMatrix>
        </filter>
        <path d="M10,-7.10542736e-15 L316,-7.10542736e-15 C321.522847,2.13116858e-14 326,4.4771525 326,10 L326,102 C326,107.522847 321.522847,112 316,112 L10,112 C4.4771525,112 6.76353751e-16,107.522847 0,102 L0,10 C-6.76353751e-16,4.4771525 4.4771525,-6.09089673e-15 10,-7.10542736e-15 Z" id="path-3"></path>
        <filter x="-12.3%" y="-17.9%" width="124.5%" height="171.4%" filterUnits="objectBoundingBox" id="filter-4">
            <feOffset dx="0" dy="20" in="SourceAlpha" result="shadowOffsetOuter1"></feOffset>
            <feGaussianBlur stdDeviation="10" in="shadowOffsetOuter1" result="shadowBlurOuter1"></feGaussianBlur>
            <feComposite in="shadowBlurOuter1" in2="SourceAlpha" operator="out" result="shadowBlurOuter1"></feComposite>
            <feColorMatrix values="0 0 0 0 0   0 0 0 0 0   0 0 0 0 0  0 0 0 0.1 0" type="matrix" in="shadowBlurOuter1"></feColorMatrix>
        </filter>
        <path d="M10,128 L316,128 C321.522847,128 326,132.477153 326,138 L326,230 C326,235.522847 321.522847,240 316,240 L10,240 C4.4771525,240 6.76353751e-16,235.522847 0,230 L0,138 C-6.76353751e-16,132.477153 4.4771525,128 10,128 Z" id="path-5"></path>
        <filter x="-12.3%" y="-17.9%" width="124.5%" height="171.4%" filterUnits="objectBoundingBox" id="filter-6">
            <feOffset dx="0" dy="20" in="SourceAlpha" result="shadowOffsetOuter1"></feOffset>
            <feGaussianBlur stdDeviation="10" in="shadowOffsetOuter1" result="shadowBlurOuter1"></feGaussianBlur>
            <feComposite in="shadowBlurOuter1" in2="SourceAlpha" operator="out" result="shadowBlurOuter1"></feComposite>
            <feColorMatrix values="0 0 0 0 0   0 0 0 0 0   0 0 0 0 0  0 0 0 0.1 0" type="matrix" in="shadowBlurOuter1"></feColorMatrix>
        </filter>
        <path d="M10,256 L316,256 C321.522847,256 326,260.477153 326,266 L326,358 C326,363.522847 321.522847,368 316,368 L10,368 C4.4771525,368 6.76353751e-16,363.522847 0,358 L0,266 C-6.76353751e-16,260.477153 4.4771525,256 10,256 Z" id="path-7"></path>
        <filter x="-12.3%" y="-17.9%" width="124.5%" height="171.4%" filterUnits="objectBoundingBox" id="filter-8">
            <feOffset dx="0" dy="20" in="SourceAlpha" result="shadowOffsetOuter1"></feOffset>
            <feGaussianBlur stdDeviation="10" in="shadowOffsetOuter1" result="shadowBlurOuter1"></feGaussianBlur>
            <feComposite in="shadowBlurOuter1" in2="SourceAlpha" operator="out" result="shadowBlurOuter1"></feComposite>
            <feColorMatrix values="0 0 0 0 0   0 0 0 0 0   0 0 0 0 0  0 0 0 0.1 0" type="matrix" in="shadowBlurOuter1"></feColorMatrix>
        </filter>
    </defs>
    <g id="Page-1" stroke="none" stroke-width="1" fill="none" fill-rule="evenodd">
        <g id="Business_game" transform="translate(-1007.000000, -3344.000000)">
            <g id="product" transform="translate(0.000000, 2702.000000)">
                <g id="section#2" transform="translate(335.000000, 128.000000)">
                    <g id="item#2" transform="translate(40.000000, 514.000000)">
                        <g id="cheked_img" transform="translate(652.000000, 0.000000)">
                            <g id="browser_sample" transform="translate(48.000000, 0.000000)">
                                <g id="base">
                                    <use fill="black" fill-opacity="1" filter="url(#filter-2)" xlink:href="#path-1"></use>
                                    <rect stroke-opacity="0.15" stroke="#000000" stroke-width="0.5" stroke-linejoin="square" fill="#FBD956" fill-rule="evenodd" x="0.25" y="0.25" width="469.5" height="369.5" rx="10"></rect>
                                </g>
                                <g id="Стартапер" transform="translate(92.000000, 0.000000)" fill-rule="nonzero">
                                    <path d="M342.75544,207.256883 L319.798596,196.548415 C310.18947,192.067154 304.880155,183.999856 302.079204,174.07364 C288.837569,127.148775 246.888329,59.8785051 192.573501,51.1008474 C163.400497,46.3867934 143.583387,57.7405772 132.406961,67.5640907 C126.544983,72.7163429 122.613044,79.6967033 120.246695,87.2573339 C118.645174,92.3770636 115.378824,96.8600366 110.88909,99.8726492 C68.9056299,128.050847 32.9466945,148.454451 9.47654241,194.105802 L7.0520177,198.821568 C-8.14189865,228.374271 2.84631427,265.412289 31.4683675,281.127514 C60.1639949,296.882109 92.5845272,303.965172 125.006771,301.558505 L303.566086,288.309856 C317.07293,287.308505 331.818558,281.897784 344.386048,273.464181 C366.744033,258.461028 368.119698,224.870397 346.146695,209.281838 C344.969508,208.448235 343.831675,207.760127 342.75544,207.256883 Z" id="Shape" fill="#FAE697"></path>
                                    <path d="M391.669392,256.710541 L419.500951,256.710541 C420.594297,256.710541 421.46692,257.622883 421.419011,258.716667 L417.8327,339.122613 C417.742015,341.174955 416.051521,342.790811 413.998289,342.790811 L397.173764,342.790811 C395.120532,342.790811 393.430038,341.173243 393.339354,339.122613 L389.753042,258.716667 C389.703422,257.622883 390.576046,256.710541 391.669392,256.710541 Z" id="Shape" fill="#BAC6C6"></path>
                                    <rect id="Rectangle-path" fill="#D9DBDB" x="160.619202" y="262.242793" width="18.3798479" height="18.3872072"></rect>
                                    <path d="M200.819772,366.138559 C186.457414,366.14027 166.667681,360.661081 148.472624,347.516847 C129.80019,334.026847 118.591255,303.183514 115.158935,255.840991 C112.619772,220.834775 115.514829,189.303333 115.543916,188.988378 L119.020722,189.315315 C118.904373,190.558018 107.859696,313.86973 150.5173,344.687387 C178.665399,365.022523 210.351901,365.625045 216.809316,358.227027 C218.660646,356.106216 218.012167,353.362342 214.884411,350.074144 C206.736502,341.507027 200.670913,339.396486 195.318821,337.534144 C190.904373,335.998739 186.734601,334.547207 182.315019,330.026577 C164.53403,311.841351 167.918441,272.923874 168.070722,271.275495 L171.547529,271.597297 C171.511597,271.984144 168.161407,310.557568 184.811407,327.583964 C188.657795,331.517477 192.276616,332.777297 196.46692,334.235676 C202.193726,336.228108 208.68365,338.485856 217.415019,347.665766 C223.65,354.221622 220.908935,358.841532 219.439163,360.524144 C216.314829,364.101622 209.575095,366.138559 200.819772,366.138559 Z" id="Shape" fill="#FFFFFF"></path>
                                    <polygon id="Shape" fill="#A9B5B7" points="176.663498 185.224324 192.61711 181.503063 159.390684 181.443153 159.390684 185.352703"></polygon>
                                    <path d="M218.86597,325.16018 L218.590494,336.834054 C218.544297,338.802523 217.368821,340.569009 215.558555,341.344414 C213.515589,342.219099 210.760837,343.715135 208.450951,346.079009 C204.185361,350.447297 192.064449,348.377838 192.064449,348.377838 C192.064449,348.377838 191.350951,342.775405 195.484791,341.85964 C197.727947,341.363243 200.504943,338.756306 202.505133,334.434234 C207.646768,323.326937 205.85019,318.14045 205.85019,318.14045 L218.86597,325.16018 Z" id="Shape" fill="#0A0D40"></path>
                                    <path d="M252.776806,327.294685 L250.990494,337.142162 C250.472053,340.004144 251.621863,342.876396 253.911217,344.668559 C255.514449,345.924955 257.33327,347.662342 258.760266,349.885856 C262.057414,355.024414 274.346008,355.443784 274.346008,355.443784 C274.346008,355.443784 276.175095,350.09982 272.309886,348.369279 C270.213878,347.42955 268.018631,344.315946 266.932129,339.680631 C264.136312,327.765405 266.940684,323.047928 266.940684,323.047928 L252.776806,327.294685 Z" id="Shape" fill="#0A0D40"></path>
                                    <path d="M265.823384,63.2597297 C264.865209,70.7108108 258.137452,90.754955 246.391255,89.2435135 C234.645057,87.7320721 233.204373,66.6386486 234.162548,59.1875676 C235.120722,51.7364865 242.984601,46.6081982 251.726236,47.7327928 C260.469582,48.8573874 266.781559,55.8086486 265.823384,63.2597297 Z" id="Shape" fill="#F8C7B2"></path>
                                    <path d="M259.786882,107.231892 C249.325665,99.0173874 255.919962,84.5534234 255.919962,84.5534234 L238.361407,82.2956757 C238.361407,82.2956757 241.085361,97.9578378 228.885741,103.257297 C223.022053,105.804324 264.813878,111.180811 259.786882,107.231892 Z" id="Shape" fill="#F8C7B2"></path>
                                    <path d="M255.348479,39.531982 C249.111787,38.558018 244.640875,39.205045 241.40019,42.7345946 C234.631369,43.0221622 233.425095,50.7488288 232.788593,54.8278378 C231.484791,63.180991 233.986312,69.8155856 233.986312,69.8155856 C234.167681,68.6567568 235.536502,61.156036 236.522053,55.7761261 C237.007985,53.1212613 239.940684,51.6971171 242.313878,52.9774775 C244.923194,54.3845045 248.028707,55.8634234 250.061407,56.1800901 C252.523574,56.5652252 255.697529,56.1766667 258.373574,55.6563063 C261.035932,55.1376577 263.424525,57.368018 263.089163,60.0622523 C262.418441,65.4575676 261.487643,72.8692793 261.29943,74.0811712 C261.29943,74.0811712 265.56673,68.8587387 266.925285,60.1598198 C268.357414,50.9662162 267.164829,41.3772072 255.348479,39.531982 Z" id="Shape" fill="#4B1621"></path>
                                    <ellipse id="Oval" fill="#F8C7B2" transform="translate(263.071207, 71.274351) rotate(-76.455685) translate(-263.071207, -71.274351) " cx="263.071207" cy="71.2743515" rx="4.66088889" ry="2.45462218"></ellipse>
                                    <ellipse id="Oval" fill="#F8C7B2" transform="translate(234.245596, 68.975005) rotate(-2.516184) translate(-234.245596, -68.975005) " cx="234.245596" cy="68.9750049" rx="2.45352409" ry="4.66253533"></ellipse>
                                    <path d="M272.741065,153.708288 L270.725475,151.385495 L271.818821,189.152703 L212.974905,189.152703 L212.974905,156.914324 C207.179658,158.028649 203.148479,158.239189 203.071483,157.029009 C202.821673,152.996216 205.547338,133.854144 206.565399,124.503063 C207.562928,115.172523 212.360646,106.569459 218.176426,103.036486 C222.226426,100.578468 235.890684,97.1413514 235.890684,97.1413514 C235.890684,97.1413514 239.422243,102.594865 244.259316,102.786577 C250.477186,103.036486 254.008745,92.227027 253.912928,93.1872973 C253.721293,95.2036937 259.574715,97.737027 267.406084,100.272072 C275.235741,102.786577 277.23251,108.623514 277.23251,108.623514 C282.798479,133.164324 272.741065,153.708288 272.741065,153.708288 Z" id="Shape" fill="#B19694"></path>
                                    <g id="Group" transform="translate(202.790875, 99.279279)" fill="#997C77">
                                        <path d="M71.9076046,5.48774775 L13.0636882,5.48774775 C13.8114068,4.81504505 14.5796578,4.23990991 15.3855513,3.75891892 C16.4788973,3.10675676 18.2652091,2.35702703 20.2996198,1.64666667 L66.3228137,1.64666667 C68.8568441,2.72333333 70.6602662,4.14405405 71.9076046,5.48774775 Z" id="Shape"></path>
                                        <path d="M75.4785171,15.0887387 L6.42319392,15.0887387 C7.01863118,13.7262162 7.67053232,12.439009 8.39942966,11.2493694 L74.8437262,11.2493694 C75.0935361,12.5536937 75.3057034,13.8203604 75.4785171,15.0887387 Z" id="Shape"></path>
                                        <path d="M76.111597,24.688018 L3.85152091,24.688018 C4.00551331,23.381982 4.23479087,22.0964865 4.52395437,20.8486486 L76.0157795,20.8486486 C76.0910646,22.1546847 76.1304183,23.4401802 76.111597,24.688018 Z" id="Shape"></path>
                                        <path d="M75.8617871,30.4479279 C75.7659696,31.7727928 75.6307985,33.0582883 75.4579848,34.2872973 L2.67946768,34.2872973 C2.85228137,32.9624324 3.00627376,31.6752252 3.15855513,30.4479279 L75.8617871,30.4479279 Z" id="Shape"></path>
                                        <path d="M74.4980989,40.0489189 C74.2106464,41.4114414 73.9231939,42.6986486 73.5963878,43.8882883 L1.49030418,43.8882883 C1.64429658,42.6404505 1.81711027,41.3344144 1.96939163,40.0489189 L74.4980989,40.0489189 Z" id="Shape"></path>
                                        <path d="M71.869962,49.6481982 C71.2557034,51.3753153 70.7184411,52.6813514 70.3728137,53.4875676 L0.473954373,53.4875676 C0.569771863,52.3544144 0.684410646,51.0483784 0.838403042,49.6481982 L71.869962,49.6481982 Z" id="Shape"></path>
                                        <polygon id="Shape" points="68.2614068 63.0885586 10.1840304 63.0885586 10.1840304 59.2491892 68.1467681 59.2491892"></polygon>
                                        <polygon id="Shape" points="68.530038 72.6895495 10.1840304 72.6895495 10.1840304 68.8484685 68.4153992 68.8484685"></polygon>
                                        <polygon id="Shape" points="68.8174905 82.2888288 10.1840304 82.2888288 10.1840304 78.4494595 68.7028517 78.4494595"></polygon>
                                    </g>
                                    <path d="M252.953042,140.091622 C252.953042,140.091622 231.414639,136.337838 219.045627,140.882432 C208.948859,145.428739 203.030418,151.453964 203.076616,157.030721 C203.119392,162.049459 215.058935,162.436306 254.896768,146.986396 L252.953042,140.091622 Z" id="Shape" fill="#F8C7B2"></path>
                                    <path d="M272.470722,191.668919 C272.470722,191.668919 274.20057,218.678018 271.604943,247.693243 C271.031749,254.096757 270.679278,260.531081 270.881179,266.961982 C271.154943,275.650631 273.285171,302.117117 266.553992,333.364414 L250.073384,333.364414 C250.073384,333.364414 250.073384,301.754234 250.44981,281.751171 C250.573004,275.234685 250.069962,268.714775 248.91673,262.300991 C244.726426,239.00973 243.331939,214.747928 243.331939,212.200901 C243.331939,212.200901 227.448479,255.317207 223.48403,267.708288 C225.005133,285.361171 219.986692,330.772883 219.986692,330.772883 C207.349049,326.375495 203.889354,328.545946 203.889354,328.545946 C203.889354,328.545946 200.190114,266.850721 200.924144,261.727568 C205.211977,231.842793 213.284601,191.119459 213.284601,191.119459 L272.470722,191.668919 Z" id="Shape" fill="#5E6CAE"></path>
                                    <rect id="Rectangle-path" fill="#FFFFFF" x="84.345057" y="185.39036" width="317.214068" height="13.5516216"></rect>
                                    <g id="Group" transform="translate(61.775665, 190.000000)" fill="#FFFFFF">
                                        <polygon id="Shape" points="98.8435361 6.90846847 15.4515209 162.891622 0.0779467681 162.891622 86.8851711 0.515225225"></polygon>
                                        <polygon id="Shape" points="296.765589 163.376396 281.392015 163.376396 198 7.39324324 209.956654 1"></polygon>
                                    </g>
                                    <path d="M311.184411,150.307117 L309.103802,132.554955 C308.990875,131.587838 308.171293,130.858649 307.197719,130.858649 L298.697338,130.858649 L298.697338,127.019279 L307.197719,127.019279 C310.118441,127.019279 312.575475,129.206847 312.91597,132.108198 L314.996578,149.86036 L311.184411,150.307117 Z" id="Shape" fill="#171035"></path>
                                    <path d="M239.24943,92.7559459 C239.701141,89.6577477 241.434411,84.6612613 247.7173,81.9430631 C248.648099,81.5408108 249.753422,81.8917117 250.211977,82.7972072 C251.291635,84.9334234 252.881179,89.9453153 252.881179,100.953333 C252.881179,100.953333 253.794867,104.58045 255.353612,106.442793 C257.194677,108.642342 272.203802,133.628198 272.88308,152.664144 C272.987452,155.598018 270.913688,157.848919 265.607795,156.568559 C260.832319,155.416577 256.375095,153.415586 252.769962,143.739279 C249.746578,135.625766 248.36749,118.257027 247.927757,111.452973 C247.83365,109.991171 247.104753,108.69027 246.03365,107.692342 C244.615209,106.369189 242.830608,103.202523 242.777567,95.635045 C242.772433,94.9948649 242.165019,94.5258559 241.554183,94.7158559 C240.298289,95.1027027 239.059506,94.0568468 239.24943,92.7559459 Z" id="Shape" fill="#FAD8C2"></path>
                                    <g id="Group" transform="translate(302.030418, 145.495495)">
                                        <path d="M1.42528517,0.285855856 C1.42528517,21.2166667 3.08669202,33.5255856 3.71806084,38.1951351 C3.84809886,39.1554054 4.55475285,39.8572072 5.38288973,39.8572072 L16.0254753,39.8572072 C16.8553232,39.8572072 17.5619772,39.1554054 17.6903042,38.1951351 C18.321673,33.5238739 19.9813688,21.2166667 19.9813688,0.285855856 L1.42528517,0.285855856 Z" id="Shape" fill="#A5DCF2"></path>
                                        <path d="M17.9538023,8.20081081 L3.44942966,8.20081081 C3.7095057,20.4943243 4.53422053,29.0888288 5.15532319,34.2821622 C5.14163498,34.1657658 5.13479087,34.0442342 5.13992395,33.9227027 C5.16387833,34.1435135 5.1878327,34.3403604 5.21007605,34.5526126 C5.40684411,35.328018 6.0108365,35.9014414 6.74144487,35.9014414 L14.6652091,35.9014414 C15.3958175,35.9014414 16.0015209,35.3263063 16.1965779,34.5526126 C16.2205323,34.3420721 16.2427757,34.1452252 16.26673,33.9227027 C16.2718631,34.0442342 16.265019,34.1623423 16.2513308,34.2804505 C16.8741445,29.0871171 17.6937262,20.4823423 17.9538023,8.20081081 Z" id="Shape" fill="#EE5A30"></path>
                                    </g>
                                    <path d="M175.303232,185.39036 L123.039924,185.39036 C119.860837,185.39036 117.282319,182.810811 117.282319,179.63045 L117.282319,143.922432 C117.282319,140.536667 120.187643,137.881802 123.558365,138.186486 L175.821673,138.162523 C178.788593,138.431261 181.062548,140.918378 181.062548,143.898468 L181.062548,179.63045 C181.060837,182.812523 178.482319,185.39036 175.303232,185.39036 Z" id="Shape" fill="#BAC6C6"></path>
                                    <g id="Group" transform="translate(296.897338, 0.000000)">
                                        <rect id="Rectangle-path" fill="#171035" x="10.0796578" y="1.46693694" width="3.8378327" height="37.1595495"></rect>
                                        <path d="M15.4711027,41.117027 L11.9977186,41.117027 L8.5243346,41.117027 C8.5243346,41.117027 1.67338403,49.0268468 1.67338403,56.1698198 C1.67338403,61.8715315 6.29828897,66.4811712 11.9994297,66.4811712 C17.7005703,66.4811712 22.3254753,61.8732432 22.3254753,56.1698198 C22.3237643,49.0285586 15.4711027,41.117027 15.4711027,41.117027 Z" id="Shape" fill="#F8B732"></path>
                                        <polygon id="Shape" fill="#DAD7DE" points="9.11806084 35.53 14.8773764 35.53 16.004943 41.7709009 7.98878327 41.7709009"></polygon>
                                    </g>
                                    <ellipse id="Oval" fill="#FFFFFF" cx="169.807414" cy="271.436396" rx="5.43250951" ry="5.43468468"></ellipse>
                                    <g id="Group" transform="translate(358.494297, 160.900901)" fill="#90BF88">
                                        <path d="M44.419962,100.989279 C44.3634981,100.438108 38.4245247,45.4630631 14.0988593,13.6372072 L17.1461977,11.3041441 C30.2321293,28.422973 37.989924,51.8032432 42.1939163,68.4 C46.73327,86.3267568 48.2252852,100.453514 48.2406844,100.593874 L44.419962,100.989279 Z" id="Shape"></path>
                                        <path d="M6.21958175,14.1661261 C12.0422053,18.1886486 17.2591255,15.300991 18.06673,14.5153153 C18.8247148,13.4163964 19.3636882,7.57774775 13.8473384,3.49531532 C9.11634981,0.227657658 0.177946768,1.89144144 0.177946768,1.89144144 C0.177946768,1.89144144 1.79144487,10.8385586 6.21958175,14.1661261 Z" id="Shape"></path>
                                        <path d="M22.4931559,12.6546847 C20.4022814,19.4176577 24.7192015,23.5309009 25.7098859,24.0666667 C26.9863118,24.4620721 32.7148289,23.2262162 34.9562738,16.7371171 C36.6536122,11.2425225 32.3897338,3.21117117 32.3897338,3.21117117 C32.3897338,3.21117117 24.3393536,7.43225225 22.4931559,12.6546847 Z" id="Shape"></path>
                                        <path d="M15.2110266,37.833964 C21.7728137,40.4836937 26.230038,36.5245045 26.8477186,35.5813514 C27.3473384,34.3420721 26.5961977,28.5290991 20.3201521,25.750991 C14.9885932,23.5993694 6.63193916,27.1785586 6.63193916,27.1785586 C6.63193916,27.1785586 10.1634981,35.5573874 15.2110266,37.833964 Z" id="Shape"></path>
                                        <path d="M24.8081749,62.7941441 C31.369962,65.4438739 35.8271863,61.4846847 36.4448669,60.5415315 C36.9444867,59.3022523 36.193346,53.4892793 29.9173004,50.7111712 C24.5857414,48.5595495 16.2290875,52.1387387 16.2290875,52.1387387 C16.2290875,52.1387387 19.7589354,60.5175676 24.8081749,62.7941441 Z" id="Shape"></path>
                                        <path d="M34.3522814,34.6963964 C31.2142586,41.0417117 34.8228137,45.7882883 35.7176806,46.4746847 C36.9153992,47.0669369 42.7671103,46.7571171 46.0095057,40.7079279 C48.5589354,35.553964 45.6228137,26.9457658 45.6228137,26.9457658 C45.6228137,26.9457658 37.0026616,29.8334234 34.3522814,34.6963964 Z" id="Shape"></path>
                                        <path d="M44.5671103,64.3021622 C40.2724335,69.9268468 42.9022814,75.2776577 43.65,76.1232432 C44.7108365,76.9345946 50.5129278,77.7527928 54.8555133,72.4379279 C58.3442966,67.8676577 57.1140684,58.8554955 57.1140684,58.8554955 C57.1140684,58.8554955 48.1020913,60.0382883 44.5671103,64.3021622 Z" id="Shape"></path>
                                    </g>
                                    <g id="Group" transform="translate(397.847909, 181.441441)" fill="#74AF68">
                                        <path d="M4.43840304,99.6472973 L0.619391635,99.2536036 C0.634790875,99.1132432 2.12680608,84.9864865 6.6661597,67.0597297 C10.8701521,50.4612613 18.6279468,27.0827027 31.7138783,9.96387387 L34.7612167,12.2969369 C10.4338403,44.1210811 4.49486692,99.0961261 4.43840304,99.6472973 Z" id="Shape"></path>
                                        <path d="M42.6387833,12.8258559 C36.8161597,16.8483784 31.5992395,13.9607207 30.791635,13.175045 C30.0336502,12.0761261 29.4946768,6.23747748 35.0110266,2.15504505 C39.7420152,-1.11261261 48.6804183,0.551171171 48.6804183,0.551171171 C48.6804183,0.551171171 47.0669202,9.49828829 42.6387833,12.8258559 Z" id="Shape"></path>
                                        <path d="M26.3652091,11.3144144 C28.4560837,18.0773874 24.1391635,22.1906306 23.1484791,22.7263964 C21.8720532,23.1218018 16.1435361,21.8859459 13.9020913,15.3968468 C12.2030418,9.90225225 16.4686312,1.8709009 16.4686312,1.8709009 C16.4686312,1.8709009 24.5190114,6.09198198 26.3652091,11.3144144 Z" id="Shape"></path>
                                        <path d="M33.6456274,36.4936937 C27.0838403,39.1434234 22.626616,35.1842342 22.0089354,34.2410811 C21.5093156,33.0018018 22.2604563,27.1888288 28.5365019,24.4107207 C33.8680608,22.2590991 42.2247148,25.8382883 42.2247148,25.8382883 C42.2247148,25.8382883 38.6948669,34.2171171 33.6456274,36.4936937 Z" id="Shape"></path>
                                        <path d="M24.0501901,61.4538739 C17.488403,64.1036036 13.0311787,60.1444144 12.4134981,59.2012613 C11.9138783,57.961982 12.665019,52.149009 18.9410646,49.3709009 C24.2726236,47.2192793 32.6292776,50.7984685 32.6292776,50.7984685 C32.6292776,50.7984685 29.0977186,59.1772973 24.0501901,61.4538739 Z" id="Shape"></path>
                                        <path d="M14.5060837,33.3561261 C17.6441065,39.7014414 14.0355513,44.448018 13.1406844,45.1344144 C11.9429658,45.7266667 6.09125475,45.4168468 2.84885932,39.3676577 C0.299429658,34.2136937 3.23555133,25.6054955 3.23555133,25.6054955 C3.23555133,25.6054955 11.8539924,28.4931532 14.5060837,33.3561261 Z" id="Shape"></path>
                                    </g>
                                    <path d="M391.669392,256.710541 L419.500951,256.710541 C420.594297,256.710541 421.46692,257.622883 421.419011,258.716667 L420.137452,287.446036 L390.812167,282.471802 L389.753042,258.716667 C389.703422,257.622883 390.576046,256.710541 391.669392,256.710541 Z" id="Shape" fill="#BAC6C6"></path>
                                </g>
                            </g>
                            <g id="maximized_widget" transform="translate(0.000000, 48.000000)">
                                <g id="base">
                                    <use fill="black" fill-opacity="1" filter="url(#filter-4)" xlink:href="#path-3"></use>
                                    <path stroke-opacity="0.15" stroke="#000000" stroke-width="0.5" d="M10,0.25 C4.61522369,0.25 0.25,4.61522369 0.25,10 L0.25,102 C0.25,107.384776 4.61522369,111.75 10,111.75 L316,111.75 C321.384776,111.75 325.75,107.384776 325.75,102 L325.75,10 C325.75,4.61522369 321.384776,0.25 316,0.25 L10,0.25 Z" stroke-linejoin="square" fill="#AE8DFF" fill-rule="evenodd"></path>
                                </g>
                                <g id="Small_avatar_placeholder" transform="translate(25.000000, 159.000000)"></g>
                                <g id="base">
                                    <use fill="black" fill-opacity="1" filter="url(#filter-6)" xlink:href="#path-5"></use>
                                    <path stroke-opacity="0.15" stroke="#000000" stroke-width="0.5" d="M10,128.25 C4.61522369,128.25 0.25,132.615224 0.25,138 L0.25,230 C0.25,235.384776 4.61522369,239.75 10,239.75 L316,239.75 C321.384776,239.75 325.75,235.384776 325.75,230 L325.75,138 C325.75,132.615224 321.384776,128.25 316,128.25 L10,128.25 Z" stroke-linejoin="square" fill="#AE8DFF" fill-rule="evenodd"></path>
                                </g>
                                <g id="base">
                                    <use fill="black" fill-opacity="1" filter="url(#filter-8)" xlink:href="#path-7"></use>
                                    <path stroke-opacity="0.15" stroke="#000000" stroke-width="0.5" d="M10,256.25 C4.61522369,256.25 0.25,260.615224 0.25,266 L0.25,358 C0.25,363.384776 4.61522369,367.75 10,367.75 L316,367.75 C321.384776,367.75 325.75,363.384776 325.75,358 L325.75,266 C325.75,260.615224 321.384776,256.25 316,256.25 L10,256.25 Z" stroke-linejoin="square" fill="#AE8DFF" fill-rule="evenodd"></path>
                                </g>
                                <g id="Group-8" transform="translate(25.000000, 32.000000)">
                                    <circle id="Oval" fill="#FBD956" cx="24" cy="24" r="24"></circle>
                                    <rect id="Rectangle" fill="#F4F6F9" x="66" y="1" width="134" height="13" rx="5"></rect>
                                    <rect id="Rectangle-Copy" fill="#F4F6F9" x="66" y="23" width="89" height="4" rx="2"></rect>
                                    <rect id="Rectangle-Copy-2" fill="#F4F6F9" x="66" y="36" width="89" height="4" rx="2"></rect>
                                    <g id="checked" transform="translate(227.000000, 1.000000)" fill="#37F87A" fill-rule="nonzero">
                                        <path d="M22,0 C9.8,0 0,9.8 0,22 C0,34.2 9.8,44 22,44 C34.2,44 44,34.2 44,22 C44,9.8 34.2,0 22,0 Z M34.7,15.1 L18.7,31.7 C18.5,31.9 18.3,32 18,32 C17.7,32 17.4,31.9 17.3,31.7 L9.5,23.3 L9.3,23.1 C9.1,22.9 9,22.6 9,22.4 C9,22.2 9.1,21.9 9.3,21.7 L10.7,20.3 C11.1,19.9 11.7,19.9 12.1,20.3 L12.2,20.4 L17.7,26.3 C17.9,26.5 18.2,26.5 18.4,26.3 L31.8,12.4 L31.9,12.4 C32.3,12 32.9,12 33.3,12.4 L34.7,13.8 C35.1,14.1 35.1,14.7 34.7,15.1 Z" id="Shape"></path>
                                    </g>
                                </g>
                                <g id="Group-8-Copy" transform="translate(25.000000, 160.000000)">
                                    <circle id="Oval" fill="#FBD956" cx="24" cy="24" r="24"></circle>
                                    <rect id="Rectangle" fill="#F4F6F9" x="66" y="1" width="134" height="13" rx="5"></rect>
                                    <rect id="Rectangle-Copy" fill="#F4F6F9" x="66" y="23" width="89" height="4" rx="2"></rect>
                                    <rect id="Rectangle-Copy-2" fill="#F4F6F9" x="66" y="36" width="89" height="4" rx="2"></rect>
                                    <g id="checked" transform="translate(227.000000, 1.000000)" fill="#37F87A" fill-rule="nonzero">
                                        <path d="M22,0 C9.8,0 0,9.8 0,22 C0,34.2 9.8,44 22,44 C34.2,44 44,34.2 44,22 C44,9.8 34.2,0 22,0 Z M34.7,15.1 L18.7,31.7 C18.5,31.9 18.3,32 18,32 C17.7,32 17.4,31.9 17.3,31.7 L9.5,23.3 L9.3,23.1 C9.1,22.9 9,22.6 9,22.4 C9,22.2 9.1,21.9 9.3,21.7 L10.7,20.3 C11.1,19.9 11.7,19.9 12.1,20.3 L12.2,20.4 L17.7,26.3 C17.9,26.5 18.2,26.5 18.4,26.3 L31.8,12.4 L31.9,12.4 C32.3,12 32.9,12 33.3,12.4 L34.7,13.8 C35.1,14.1 35.1,14.7 34.7,15.1 Z" id="Shape"></path>
                                    </g>
                                </g>
                                <g id="Group-8-Copy-2" transform="translate(25.000000, 288.000000)">
                                    <circle id="Oval" fill="#FBD956" cx="24" cy="24" r="24"></circle>
                                    <rect id="Rectangle" fill="#F4F6F9" x="66" y="1" width="134" height="13" rx="5"></rect>
                                    <rect id="Rectangle-Copy" fill="#F4F6F9" x="66" y="23" width="89" height="4" rx="2"></rect>
                                    <rect id="Rectangle-Copy-2" fill="#F4F6F9" x="66" y="36" width="89" height="4" rx="2"></rect>
                                    <g id="checked" transform="translate(227.000000, 1.000000)" fill="#37F87A" fill-rule="nonzero">
                                        <path d="M22,0 C9.8,0 0,9.8 0,22 C0,34.2 9.8,44 22,44 C34.2,44 44,34.2 44,22 C44,9.8 34.2,0 22,0 Z M34.7,15.1 L18.7,31.7 C18.5,31.9 18.3,32 18,32 C17.7,32 17.4,31.9 17.3,31.7 L9.5,23.3 L9.3,23.1 C9.1,22.9 9,22.6 9,22.4 C9,22.2 9.1,21.9 9.3,21.7 L10.7,20.3 C11.1,19.9 11.7,19.9 12.1,20.3 L12.2,20.4 L17.7,26.3 C17.9,26.5 18.2,26.5 18.4,26.3 L31.8,12.4 L31.9,12.4 C32.3,12 32.9,12 33.3,12.4 L34.7,13.8 C35.1,14.1 35.1,14.7 34.7,15.1 Z" id="Shape"></path>
                                    </g>
                                </g>
                            </g>
                        </g>
                    </g>
                </g>
            </g>
        </g>
    </g>
</svg>