<?xml version="1.0" encoding="utf-8"?>
<!-- Generator: Adobe Illustrator 18.0.0, SVG Export Plug-In . SVG Version: 6.00 Build 0)  -->
<!DOCTYPE svg PUBLIC "-//W3C//DTD SVG 1.1//EN" "http://www.w3.org/Graphics/SVG/1.1/DTD/svg11.dtd">
<svg version="1.1" id="Слой_1" xmlns="http://www.w3.org/2000/svg" xmlns:xlink="http://www.w3.org/1999/xlink" x="0px" y="0px"
	 viewBox="0 0 342.3 51.6" enable-background="new 0 0 342.3 51.6" xml:space="preserve">
<path fill-rule="evenodd" clip-rule="evenodd" fill="#3CDC46" d="M57.1,35l-3.8,3.8l5.2,5.2c5,5,11.6,7.6,18.2,7.6
	c6.6,0,13.2-2.5,18.2-7.6c0.5-0.5-0.1-1.4-1-0.8c-4.2,2.9-9.1,4.3-14,4.3c-6.4,0-12.8-2.4-17.7-7.3L57.1,35z"/>
<path fill-rule="evenodd" clip-rule="evenodd" fill="#3CDC46" d="M68.8,17.9c4.3-4.3,11.4-4.3,15.7,0c3.3,3.3,4.2,8.2,2.4,12.3
	c-0.5,1,0.4,1.9,1.5,0.8c4.7-4.7,4.7-12.2,0-16.9c-6.5-6.5-17-6.5-23.4,0L38.9,40.2c-7.9,7.9-20.9,7.9-28.8,0
	c-6.1-6.1-6.2-16.1,0-22.3c6-6,15.8-6.2,21.9-0.3l5.5,5.5l3.8-3.8l-5.2-5.2c-8.3-8.3-21.7-8.3-30,0C-2,22.3-2.1,35.5,6,43.8
	c10.1,10.3,26.5,10.5,36.7,0.2L68.8,17.9z"/>
<path fill-rule="evenodd" clip-rule="evenodd" fill="#3CDC46" d="M44,16.6l3.8-3.8l-5.2-5.2C37.7,2.5,31,0,24.4,0
	C17.8,0,11.2,2.5,6.2,7.6C5.7,8.1,6.3,9,7.2,8.4c4.2-2.9,9.1-4.3,14-4.3c6.4,0,12.8,2.4,17.7,7.3L44,16.6z"/>
<path fill-rule="evenodd" clip-rule="evenodd" fill="#3CDC46" d="M32.3,33.7C28,38,20.9,38,16.6,33.7c-3.3-3.3-4.2-8.2-2.4-12.3
	c0.5-1-0.4-1.9-1.5-0.8c-4.7,4.7-4.7,12.2,0,16.9c6.5,6.5,17,6.5,23.4,0l26.1-26.1c7.9-7.9,20.9-7.9,28.8,0c6.1,6.1,6.2,16.1,0,22.3
	c-6,6-15.8,6.2-21.9,0.3l-5.5-5.5l-3.8,3.8l5.2,5.2c8.3,8.3,21.7,8.3,30,0c8.2-8.2,8.3-21.4,0.2-29.7C85-2.5,68.7-2.7,58.4,7.6
	L32.3,33.7z"/>
<path fill="#FFFFFF" d="M329.8,36.9c-3.8,0-5.7-3-5.7-8.5c0-5.4,1.9-8.7,5.7-8.7c3.7,0,5.7,3.3,5.7,8.7
	C335.5,33.8,333.5,36.9,329.8,36.9 M329.8,41.2c7.6,0,12.5-4.7,12.5-12.8c0-8.1-4.9-12.9-12.5-12.9c-7.6,0-12.5,4.8-12.5,12.9
	C317.3,36.6,322.3,41.2,329.8,41.2z"/>
<path fill="#FFFFFF" d="M302.8,19.1c3.1,0,4.5,2,4.5,4.9c0,3-1.6,4.8-4.5,4.8c-2.9,0-4.6-1.9-4.6-4.8C298.2,21,300,19.1,302.8,19.1
	 M303.3,47.8c-5.1,0-7.5-1.6-7.5-3.8c0-1.7,1.4-2.5,1.7-2.8c0.6,0.1,2.4,0.3,4.5,0.4l3.6,0.2c2.1,0.1,3.4,0.2,4.4,0.7
	c0.6,0.4,0.9,0.9,0.9,1.7C310.9,46.4,308.5,47.8,303.3,47.8z M313.9,38.6c-1.5-1.1-3.8-1.5-6.7-1.7l-4.6-0.2c-3.7-0.2-5-0.6-5-2
	c0-1.6,2.3-2.1,5-2.2c4-0.1,7-1.1,8.9-2.8c1.4-1.3,2.1-3,2.1-5.2c0-2.1-0.8-3.8-2-4.9c1.2-0.4,2.8-1.3,3.8-2.2
	c0.6-0.5,0.8-1.5,0.5-2.1l-0.6-1.2l-5.7,1.8c-0.8,0.2-1.7,0.4-2.7,0.2c-0.9-0.1-2.3-0.4-4.1-0.4c-6.5,0-10.9,3.3-10.9,8.5
	c0,3.8,2.3,6.3,5.3,7.1v0.1c-3.8,0.6-5.2,2.8-5.2,4.9c0,1.8,1,3.1,2.7,4.1c-2.3,0.7-4.5,2.4-4.5,5.2c0,3.4,3.4,6.2,13.1,6.2
	c10.5,0,13.5-4.6,13.2-8.7C316.2,41,315.3,39.6,313.9,38.6z"/>
<path fill="#FFFFFF" d="M219.5,19.6c3,0,4.7,2.2,4.8,6.5h-10.3C214.2,21.7,216.5,19.6,219.5,19.6 M219.5,15.5
	c-7.4,0-12.3,4.9-12.3,12.9c0,4.1,1.4,7.5,3.7,9.7c2.1,2,5.3,3.1,8.9,3.1c3.8,0,6.8-1.3,8.8-2.8c0.9-0.7,1.1-2.2,0.4-3l-1-1.2
	c-1.7,1.5-4.4,2.7-7.3,2.7c-2.2,0-4-0.6-5.3-2.2c-1-1.2-1.5-2.8-1.6-5h14.6c1.1,0,2.1-0.9,2.1-2C230.6,20.2,226.4,15.5,219.5,15.5z"
	/>
<path fill="#FFFFFF" d="M195.6,34.5c-1,1.4-2.5,2.1-4.3,2.2c-1.3,0-2.6-0.2-3.6-1c-0.8-0.6-1.6-1.5-1.6-3.1v-7.1
	c0-1.9,0.5-3,1.5-3.8c1.2-0.9,2.5-1.4,4-1.4c1.8,0,3.3,0.8,4.3,2.4c0.9,1.4,1.3,3.4,1.3,5.8C197.1,31,196.6,33.1,195.6,34.5
	 M201.1,19.1c-1.8-2.3-4.4-3.7-7.7-3.7c-2.9,0-5,0.8-7.1,2.5c-0.3,0.3-0.6,0.4-0.9,0.4c-0.3,0-0.5-0.2-0.7-0.7l-0.5-1.7h-4.6v30
	c0,2.4,1.9,4.3,4.3,4.3h2.3V38.9c1.8,1.6,4.2,2.3,6.6,2.3c3.2,0,5.9-1.2,7.9-3.3c2-2.2,3.3-5.6,3.3-9.6
	C203.9,24.6,202.9,21.4,201.1,19.1z"/>
<path fill="#FFFFFF" d="M265,5.9v29.1c0,3.2,2.6,5.8,5.8,5.8h17.4v-4.9H272V25.3h13c0.9,0,1.6-0.7,1.6-1.6v-3.4H272v-9.6h14.7
	c0.9,0,1.6-0.7,1.6-1.6V5.9H265z"/>
<path fill="#FFFFFF" d="M238.8,40.8h2.3v-15c0-1.9,0.4-3.1,1.4-4c1-0.9,2.5-1.3,4.2-1.3c1.1,0,2.7,0.5,3-1.2l0.6-3.1
	c-0.3-0.2-1.7-0.7-3.1-0.7c-2.7,0-4.4,1.1-6,2.7c-0.7,0.8-1.4,0.7-1.7-0.3l-0.4-2h-4.6v20.6C234.5,38.9,236.5,40.8,238.8,40.8"/>
<path fill="#FFFFFF" d="M160.1,41.3c2.9,0,5.1-0.9,7.3-2.7c0.3-0.2,0.5-0.4,0.8-0.4c0.4,0,0.6,0.2,0.8,0.8l0.5,1.8h4.5V15.9h-6.6
	v15.9c0,1.5-0.4,2.3-1.3,3.1c-0.9,0.8-2.1,1.4-3.8,1.4c-3.1,0-4.1-2.1-4.1-5.3V20.2c0-2.4-1.9-4.3-4.3-4.3h-2.4v15.5
	c0,3.3,0.7,5.6,2.4,7.4C155.5,40.4,157.7,41.3,160.1,41.3"/>
<path fill="#FFFFFF" d="M134.7,41.2c6.6,0,12.4-3.5,12.4-10.1c0-3.2-1.1-5.5-2.7-7.1c-2.1-2.1-5.3-3.2-8.3-4.2
	c-4.4-1.4-8.3-2.2-8.3-5.7c0-2.5,2.3-4,5.9-4c3,0,5.7,0.9,8.2,2.4c0.9,0.5,2.2,0.3,2.8-0.5l1.3-1.7c-2-1.9-6.6-5-12.8-5
	c-6.6,0-12.2,3.5-12.2,9.8c0,2.1,0.4,3.8,1.6,5.4c2,2.5,5.5,3.8,8.9,5c4.4,1.5,8.8,2.7,8.8,6.5c0,3-2.6,4.4-6,4.4
	c-3.6,0-7.3-1.4-10.4-3.3c-0.9-0.5-2-0.3-2.7,0.5l-1.4,2C122.3,38.2,128.5,41.2,134.7,41.2"/>
</svg>
