<?xml version="1.0" encoding="UTF-8"?>
<svg width="700px" height="604px" viewBox="0 0 700 604" version="1.1" xmlns="http://www.w3.org/2000/svg" xmlns:xlink="http://www.w3.org/1999/xlink">
    <!-- Generator: sketchtool 50.2 (55047) - http://www.bohemiancoding.com/sketch -->
    <title>CAC54F54-F33A-461E-AFA4-B005CA8EB40B</title>
    <desc>Created with sketchtool.</desc>
    <defs></defs>
    <g id="Page-1" stroke="none" stroke-width="1" fill="none" fill-rule="evenodd">
        <g id="Business_game" transform="translate(-953.000000, -229.000000)" fill-rule="nonzero">
            <g id="header">
                <g id="background">
                    <g id="Millionere" transform="translate(953.000000, 229.000000)">
                        <g id="Миллионер">
                            <path d="M698.202893,351.489563 C688.927556,408.509104 644.004553,451.928311 588.685608,457.339259 L562.976609,459.854448 L242.666988,485.278176 C217.731405,487.25828 192.807113,481.260741 171.236168,468.086757 L72.3716888,407.716491 C15.9660106,373.273563 -11.6708805,304.090119 4.64422833,238.17728 C18.2410933,183.240853 60.0224499,140.705825 113.091717,127.76934 L158.36191,116.732838 C172.571297,113.270518 186.069368,107.195721 198.229487,98.7974491 L251.081407,62.2942978 C302.025193,27.1102617 370.080085,36.3211768 410.684383,83.8980285 C443.283551,122.09228 483.817282,152.048499 529.20885,171.488995 L623.904226,212.043919 C676.925507,234.75502 707.774611,292.650157 698.202893,351.489563 Z" id="Shape" fill="#FBD956" opacity="0.0267299107"></path>
                            <g id="Group" transform="translate(303.748378, 349.363721)">
                                <g transform="translate(135.755328, 0.000000)" id="Rectangle-path">
                                    <rect fill="#37F87A" x="0.491714887" y="0.319688326" width="72.106859" height="64.8810592"></rect>
                                    <rect fill="#0CAB5E" transform="translate(82.178610, 32.760218) rotate(-180.000000) translate(-82.178610, -32.760218) " x="72.5973223" y="0.319688326" width="19.1625761" height="64.8810592"></rect>
                                    <rect fill="#17C671" x="0.491714887" y="10.5653858" width="72.106859" height="3.41000881"></rect>
                                    <rect fill="#17C671" transform="translate(82.178610, 12.274151) rotate(-180.000000) translate(-82.178610, -12.274151) " x="72.5973223" y="10.5691468" width="19.1625761" height="3.41000881"></rect>
                                    <rect fill="#17C671" x="0.491714887" y="24.2242262" width="72.106859" height="3.41000881"></rect>
                                    <rect fill="#17C671" transform="translate(82.178610, 25.932678) rotate(-180.000000) translate(-82.178610, -25.932678) " x="72.5973223" y="24.2276738" width="19.1625761" height="3.41000881"></rect>
                                    <rect fill="#17C671" x="0.491714887" y="37.8830667" width="72.106859" height="3.41000881"></rect>
                                    <rect fill="#17C671" transform="translate(82.178610, 39.590892) rotate(-180.000000) translate(-82.178610, -39.590892) " x="72.5973223" y="37.8858874" width="19.1625761" height="3.41000881"></rect>
                                    <rect fill="#6BA35D" x="0.491714887" y="51.5419071" width="72.106859" height="3.41000881"></rect>
                                    <rect fill="#5D9350" transform="translate(82.178610, 53.249105) rotate(-180.000000) translate(-82.178610, -53.249105) " x="72.5973223" y="51.544101" width="19.1625761" height="3.41000881"></rect>
                                    <rect fill="#FFFFFF" x="27.480157" y="0.319688326" width="18.133104" height="64.8810592"></rect>
                                </g>
                                <g transform="translate(192.079033, 49.424167)" id="Rectangle-path">
                                    <rect fill="#37F87A" x="0.397842045" y="0.406467505" width="72.106859" height="64.8810592"></rect>
                                    <rect fill="#0CAB5E" transform="translate(82.084112, 32.846684) rotate(-180.000000) translate(-82.084112, -32.846684) " x="72.5028236" y="0.406154085" width="19.1625761" height="64.8810592"></rect>
                                    <rect fill="#17C671" x="0.397842045" y="10.6521649" width="72.106859" height="3.41000881"></rect>
                                    <rect fill="#17C671" transform="translate(82.084112, 12.360617) rotate(-180.000000) translate(-82.084112, -12.360617) " x="72.5028236" y="10.6556126" width="19.1625761" height="3.41000881"></rect>
                                    <rect fill="#17C671" x="0.397842045" y="24.3110054" width="72.106859" height="3.41000881"></rect>
                                    <rect fill="#17C671" transform="translate(82.084112, 26.019144) rotate(-180.000000) translate(-82.084112, -26.019144) " x="72.5028236" y="24.3141396" width="19.1625761" height="3.41000881"></rect>
                                    <rect fill="#17C671" x="0.397842045" y="37.9698458" width="72.106859" height="3.41000881"></rect>
                                    <rect fill="#5D9350" transform="translate(82.084112, 39.677358) rotate(-180.000000) translate(-82.084112, -39.677358) " x="72.5028236" y="37.9723532" width="19.1625761" height="3.41000881"></rect>
                                    <rect fill="#17C671" x="0.397842045" y="51.6286863" width="72.106859" height="3.41000881"></rect>
                                    <rect fill="#5D9350" transform="translate(82.084112, 53.335885) rotate(-180.000000) translate(-82.084112, -53.335885) " x="72.5028236" y="51.6308802" width="19.1625761" height="3.41000881"></rect>
                                    <rect fill="#FFFFFF" x="27.383155" y="0.406467505" width="18.133104" height="64.8810592"></rect>
                                </g>
                                <g transform="translate(279.693686, 131.636370)" id="Rectangle-path">
                                    <rect fill="#37F87A" x="0.203838171" y="0.144173167" width="72.106859" height="64.8810592"></rect>
                                    <rect fill="#0CAB5E" transform="translate(81.889795, 32.587524) rotate(-180.000000) translate(-81.889795, -32.587524) " x="72.3085068" y="0.146993946" width="19.1625761" height="64.8810592"></rect>
                                    <rect fill="#17C671" x="0.203838171" y="10.3930048" width="72.106859" height="3.41000881"></rect>
                                    <rect fill="#17C671" transform="translate(81.889795, 12.098636) rotate(-180.000000) translate(-81.889795, -12.098636) " x="72.3085068" y="10.3936316" width="19.1625761" height="3.41000881"></rect>
                                    <rect fill="#17C671" x="0.203838171" y="24.0518453" width="72.106859" height="3.41000881"></rect>
                                    <rect fill="#17C671" transform="translate(81.889795, 25.756850) rotate(-180.000000) translate(-81.889795, -25.756850) " x="72.3085068" y="24.0518453" width="19.1625761" height="3.41000881"></rect>
                                    <rect fill="#17C671" x="0.203838171" y="37.7106857" width="72.106859" height="3.41000881"></rect>
                                    <rect fill="#17C671" transform="translate(81.889795, 39.415377) rotate(-180.000000) translate(-81.889795, -39.415377) " x="72.3085068" y="37.7103723" width="19.1625761" height="3.41000881"></rect>
                                    <rect fill="#17C671" x="0.203838171" y="51.3695261" width="72.106859" height="3.41000881"></rect>
                                    <rect fill="#17C671" transform="translate(81.889795, 53.073590) rotate(-180.000000) translate(-81.889795, -53.073590) " x="72.3085068" y="51.3685859" width="19.1625761" height="3.41000881"></rect>
                                    <rect fill="#FFFFFF" x="27.1891512" y="0.144173167" width="18.133104" height="64.8810592"></rect>
                                </g>
                                <g transform="translate(249.606993, 76.426371)" id="Rectangle-path">
                                    <rect fill="#37F87A" x="0.301287122" y="0.721943733" width="72.106859" height="64.8810592"></rect>
                                    <rect fill="#0CAB5E" transform="translate(81.986618, 33.161220) rotate(-180.000000) translate(-81.986618, -33.161220) " x="72.40533" y="0.720690053" width="19.1625761" height="64.8810592"></rect>
                                    <rect fill="#17C671" x="0.301287122" y="10.9676412" width="72.106859" height="3.41000881"></rect>
                                    <rect fill="#17C671" transform="translate(81.986618, 12.675153) rotate(-180.000000) translate(-81.986618, -12.675153) " x="72.40533" y="10.9701485" width="19.1625761" height="3.41000881"></rect>
                                    <rect fill="#17C671" x="0.301287122" y="24.6264816" width="72.106859" height="3.41000881"></rect>
                                    <rect fill="#17C671" transform="translate(81.986618, 26.333680) rotate(-180.000000) translate(-81.986618, -26.333680) " x="72.40533" y="24.6286756" width="19.1625761" height="3.41000881"></rect>
                                    <rect fill="#17C671" x="0.301287122" y="38.2853221" width="72.106859" height="3.41000881"></rect>
                                    <rect fill="#17C671" transform="translate(81.986618, 39.991894) rotate(-180.000000) translate(-81.986618, -39.991894) " x="72.40533" y="38.2868892" width="19.1625761" height="3.41000881"></rect>
                                    <rect fill="#17C671" x="0.301287122" y="51.9441625" width="72.106859" height="3.41000881"></rect>
                                    <rect fill="#17C671" transform="translate(81.986618, 53.650107) rotate(-180.000000) translate(-81.986618, -53.650107) " x="72.40533" y="51.9451028" width="19.1625761" height="3.41000881"></rect>
                                    <rect fill="#FFFFFF" x="27.2866001" y="0.721943733" width="18.133104" height="64.8810592"></rect>
                                </g>
                                <g transform="translate(202.670572, 131.636370)" id="Rectangle-path">
                                    <rect fill="#37F87A" x="0.0885086796" y="0.144173167" width="72.106859" height="64.8810592"></rect>
                                    <rect fill="#0CAB5E" transform="translate(81.775404, 32.587524) rotate(-180.000000) translate(-81.775404, -32.587524) " x="72.1941161" y="0.146993946" width="19.1625761" height="64.8810592"></rect>
                                    <rect fill="#17C671" x="0.0885086796" y="10.3930048" width="72.106859" height="3.41000881"></rect>
                                    <rect fill="#17C671" transform="translate(81.775404, 12.098636) rotate(-180.000000) translate(-81.775404, -12.098636) " x="72.1941161" y="10.3936316" width="19.1625761" height="3.41000881"></rect>
                                    <rect fill="#17C671" x="0.0885086796" y="24.0518453" width="72.106859" height="3.41000881"></rect>
                                    <rect fill="#17C671" transform="translate(81.775404, 25.756850) rotate(-180.000000) translate(-81.775404, -25.756850) " x="72.1941161" y="24.0518453" width="19.1625761" height="3.41000881"></rect>
                                    <rect fill="#6BA35D" x="0.0885086796" y="37.7106857" width="72.106859" height="3.41000881"></rect>
                                    <rect fill="#17C671" transform="translate(81.775404, 39.415377) rotate(-180.000000) translate(-81.775404, -39.415377) " x="72.1941161" y="37.7103723" width="19.1625761" height="3.41000881"></rect>
                                    <rect fill="#6BA35D" x="0.0885086796" y="51.3695261" width="72.106859" height="3.41000881"></rect>
                                    <rect fill="#17C671" transform="translate(81.775404, 53.073590) rotate(-180.000000) translate(-81.775404, -53.073590) " x="72.1941161" y="51.3685859" width="19.1625761" height="3.41000881"></rect>
                                    <rect fill="#E0D7C6" x="27.0769508" y="0.144173167" width="18.133104" height="64.8810592"></rect>
                                </g>
                                <g transform="translate(51.269770, 21.939395)" id="Rectangle-path">
                                    <rect fill="#37F87A" x="0.463553034" y="0.573558468" width="72.106859" height="64.8810592"></rect>
                                    <rect fill="#0CAB5E" transform="translate(82.150136, 33.014715) rotate(-180.000000) translate(-82.150136, -33.014715) " x="72.5688475" y="0.574185308" width="19.1625761" height="64.8810592"></rect>
                                    <rect fill="#17C671" x="0.463553034" y="10.8192559" width="72.106859" height="3.41000881"></rect>
                                    <rect fill="#17C671" transform="translate(82.150136, 12.528962) rotate(-180.000000) translate(-82.150136, -12.528962) " x="72.5688475" y="10.8239572" width="19.1625761" height="3.41000881"></rect>
                                    <rect fill="#17C671" x="0.463553034" y="24.4780964" width="72.106859" height="3.41000881"></rect>
                                    <rect fill="#17C671" transform="translate(82.150136, 26.187175) rotate(-180.000000) translate(-82.150136, -26.187175) " x="72.5688475" y="24.4821708" width="19.1625761" height="3.41000881"></rect>
                                    <rect fill="#17C671" x="0.463553034" y="38.1369368" width="72.106859" height="3.41000881"></rect>
                                    <rect fill="#5D9350" transform="translate(82.150136, 39.845389) rotate(-180.000000) translate(-82.150136, -39.845389) " x="72.5688475" y="38.1403844" width="19.1625761" height="3.41000881"></rect>
                                    <rect fill="#17C671" x="0.463553034" y="51.7957772" width="72.106859" height="3.41000881"></rect>
                                    <rect fill="#5D9350" transform="translate(82.150136, 53.503916) rotate(-180.000000) translate(-82.150136, -53.503916) " x="72.5688475" y="51.7989114" width="19.1625761" height="3.41000881"></rect>
                                    <rect fill="#FFFFFF" x="27.448866" y="0.573558468" width="18.133104" height="64.8810592"></rect>
                                </g>
                                <g transform="translate(18.774568, 76.426371)" id="Rectangle-path">
                                    <rect fill="#37F87A" x="0.194003873" y="0.721943733" width="72.106859" height="64.8810592"></rect>
                                    <rect fill="#0CAB5E" transform="translate(81.882464, 33.161220) rotate(-180.000000) translate(-81.882464, -33.161220) " x="72.3011758" y="0.720690053" width="19.1625761" height="64.8810592"></rect>
                                    <rect fill="#17C671" x="0.194003873" y="10.9676412" width="72.106859" height="3.41000881"></rect>
                                    <rect fill="#17C671" transform="translate(81.882464, 12.675153) rotate(-180.000000) translate(-81.882464, -12.675153) " x="72.3011758" y="10.9701485" width="19.1625761" height="3.41000881"></rect>
                                    <rect fill="#17C671" x="0.194003873" y="24.6264816" width="72.106859" height="3.41000881"></rect>
                                    <rect fill="#17C671" transform="translate(81.882464, 26.333680) rotate(-180.000000) translate(-81.882464, -26.333680) " x="72.3011758" y="24.6286756" width="19.1625761" height="3.41000881"></rect>
                                    <rect fill="#17C671" x="0.194003873" y="38.2853221" width="72.106859" height="3.41000881"></rect>
                                    <rect fill="#5D9350" transform="translate(81.882464, 39.991894) rotate(-180.000000) translate(-81.882464, -39.991894) " x="72.3011758" y="38.2868892" width="19.1625761" height="3.41000881"></rect>
                                    <rect fill="#17C671" x="0.194003873" y="51.9441625" width="72.106859" height="3.41000881"></rect>
                                    <rect fill="#5D9350" transform="translate(81.882464, 53.650107) rotate(-180.000000) translate(-81.882464, -53.650107) " x="72.3011758" y="51.9451028" width="19.1625761" height="3.41000881"></rect>
                                    <rect fill="#E0D7C6" x="27.182446" y="0.721943733" width="18.133104" height="64.8810592"></rect>
                                </g>
                                <g transform="translate(165.121435, 103.428576)" id="Rectangle-path">
                                    <rect fill="#37F87A" x="0.269996174" y="1.03741996" width="72.106859" height="64.8810592"></rect>
                                    <rect fill="#0CAB5E" transform="translate(81.958143, 33.475756) rotate(-180.000000) translate(-81.958143, -33.475756) " x="72.3768552" y="1.03522602" width="19.1625761" height="64.8810592"></rect>
                                    <rect fill="#17C671" x="0.269996174" y="11.2831174" width="72.106859" height="3.41000881"></rect>
                                    <rect fill="#17C671" transform="translate(81.958143, 12.989689) rotate(-180.000000) translate(-81.958143, -12.989689) " x="72.3768552" y="11.2846845" width="19.1625761" height="3.41000881"></rect>
                                    <rect fill="#17C671" x="0.269996174" y="24.9419578" width="72.106859" height="3.41000881"></rect>
                                    <rect fill="#17C671" transform="translate(81.958143, 26.647903) rotate(-180.000000) translate(-81.958143, -26.647903) " x="72.3768552" y="24.9428981" width="19.1625761" height="3.41000881"></rect>
                                    <rect fill="#17C671" x="0.269996174" y="38.6007983" width="72.106859" height="3.41000881"></rect>
                                    <rect fill="#17C671" transform="translate(81.958143, 40.306430) rotate(-180.000000) translate(-81.958143, -40.306430) " x="72.3768552" y="38.6014251" width="19.1625761" height="3.41000881"></rect>
                                    <rect fill="#17C671" x="0.269996174" y="52.2596387" width="72.106859" height="3.41000881"></rect>
                                    <rect fill="#17C671" transform="translate(81.958143, 53.964643) rotate(-180.000000) translate(-81.958143, -53.964643) " x="72.3768552" y="52.2596387" width="19.1625761" height="3.41000881"></rect>
                                    <rect fill="#FFFFFF" x="27.2584383" y="1.03741996" width="18.133104" height="64.8810592"></rect>
                                </g>
                                <g transform="translate(109.518316, 49.424167)" id="Rectangle-path">
                                    <rect fill="#37F87A" x="0.256585768" y="0.406467505" width="72.106859" height="64.8810592"></rect>
                                    <rect fill="#0CAB5E" transform="translate(81.943794, 32.846684) rotate(-180.000000) translate(-81.943794, -32.846684) " x="72.3625061" y="0.406154085" width="19.1625761" height="64.8810592"></rect>
                                    <rect fill="#17C671" x="0.256585768" y="10.6521649" width="72.106859" height="3.41000881"></rect>
                                    <rect fill="#17C671" transform="translate(81.943794, 12.360617) rotate(-180.000000) translate(-81.943794, -12.360617) " x="72.3625061" y="10.6556126" width="19.1625761" height="3.41000881"></rect>
                                    <rect fill="#17C671" x="0.256585768" y="24.3110054" width="72.106859" height="3.41000881"></rect>
                                    <rect fill="#17C671" transform="translate(81.943794, 26.019144) rotate(-180.000000) translate(-81.943794, -26.019144) " x="72.3625061" y="24.3141396" width="19.1625761" height="3.41000881"></rect>
                                    <rect fill="#17C671" x="0.256585768" y="37.9698458" width="72.106859" height="3.41000881"></rect>
                                    <rect fill="#17C671" transform="translate(81.943794, 39.677358) rotate(-180.000000) translate(-81.943794, -39.677358) " x="72.3625061" y="37.9723532" width="19.1625761" height="3.41000881"></rect>
                                    <rect fill="#17C671" x="0.256585768" y="51.6286863" width="72.106859" height="3.41000881"></rect>
                                    <rect fill="#17C671" transform="translate(81.943794, 53.335885) rotate(-180.000000) translate(-81.943794, -53.335885) " x="72.3625061" y="51.6308802" width="19.1625761" height="3.41000881"></rect>
                                    <rect fill="#FFFFFF" x="27.2450278" y="0.406467505" width="18.133104" height="64.8810592"></rect>
                                </g>
                                <g transform="translate(78.227368, 103.428576)" id="Rectangle-path">
                                    <rect fill="#37F87A" x="0.719691789" y="1.03741996" width="72.106859" height="64.8810592"></rect>
                                    <rect fill="#0CAB5E" transform="translate(82.405649, 33.475756) rotate(-180.000000) translate(-82.405649, -33.475756) " x="72.8243605" y="1.03522602" width="19.1625761" height="64.8810592"></rect>
                                    <rect fill="#17C671" x="0.719691789" y="11.2831174" width="72.106859" height="3.41000881"></rect>
                                    <rect fill="#17C671" transform="translate(82.405649, 12.989689) rotate(-180.000000) translate(-82.405649, -12.989689) " x="72.8243605" y="11.2846845" width="19.1625761" height="3.41000881"></rect>
                                    <rect fill="#17C671" x="0.719691789" y="24.9419578" width="72.106859" height="3.41000881"></rect>
                                    <rect fill="#17C671" transform="translate(82.405649, 26.647903) rotate(-180.000000) translate(-82.405649, -26.647903) " x="72.8243605" y="24.9428981" width="19.1625761" height="3.41000881"></rect>
                                    <rect fill="#17C671" x="0.719691789" y="38.6007983" width="72.106859" height="3.41000881"></rect>
                                    <rect fill="#17C671" transform="translate(82.405649, 40.306430) rotate(-180.000000) translate(-82.405649, -40.306430) " x="72.8243605" y="38.6014251" width="19.1625761" height="3.41000881"></rect>
                                    <rect fill="#17C671" x="0.719691789" y="52.2596387" width="72.106859" height="3.41000881"></rect>
                                    <rect fill="#5D9350" transform="translate(82.405649, 53.964643) rotate(-180.000000) translate(-82.405649, -53.964643) " x="72.8243605" y="52.2596387" width="19.1625761" height="3.41000881"></rect>
                                    <rect fill="#FFFFFF" x="27.7050048" y="1.03741996" width="18.133104" height="64.8810592"></rect>
                                </g>
                                <g transform="translate(0.000000, 131.636370)" id="Rectangle-path">
                                    <rect fill="#17C671" x="0.322296758" y="0.144173167" width="72.106859" height="64.8810592"></rect>
                                    <rect fill="#0CAB5E" transform="translate(82.008566, 32.587524) rotate(-180.000000) translate(-82.008566, -32.587524) " x="72.4272783" y="0.146993946" width="19.1625761" height="64.8810592"></rect>
                                    <rect fill="#17C671" x="0.322296758" y="10.3930048" width="72.106859" height="3.41000881"></rect>
                                    <rect fill="#17C671" transform="translate(82.008566, 12.098636) rotate(-180.000000) translate(-82.008566, -12.098636) " x="72.4272783" y="10.3936316" width="19.1625761" height="3.41000881"></rect>
                                    <rect fill="#6BA35D" x="0.322296758" y="24.0518453" width="72.106859" height="3.41000881"></rect>
                                    <rect fill="#5D9350" transform="translate(82.008566, 25.756850) rotate(-180.000000) translate(-82.008566, -25.756850) " x="72.4272783" y="24.0518453" width="19.1625761" height="3.41000881"></rect>
                                    <rect fill="#6BA35D" x="0.322296758" y="37.7106857" width="72.106859" height="3.41000881"></rect>
                                    <rect fill="#5D9350" transform="translate(82.008566, 39.415377) rotate(-180.000000) translate(-82.008566, -39.415377) " x="72.4272783" y="37.7103723" width="19.1625761" height="3.41000881"></rect>
                                    <rect fill="#6BA35D" x="0.322296758" y="51.3695261" width="72.106859" height="3.41000881"></rect>
                                    <rect fill="#5D9350" transform="translate(82.008566, 53.073590) rotate(-180.000000) translate(-82.008566, -53.073590) " x="72.4272783" y="51.3685859" width="19.1625761" height="3.41000881"></rect>
                                    <rect fill="#E0D7C6" x="27.3076097" y="0.144173167" width="18.133104" height="64.8810592"></rect>
                                </g>
                                <g transform="translate(65.710989, 157.915553)" id="Rectangle-path">
                                    <rect fill="#37F87A" x="0.876146525" y="1.18267103" width="72.106859" height="64.8810592"></rect>
                                    <rect fill="#0CAB5E" transform="translate(82.562103, 33.625081) rotate(-180.000000) translate(-82.562103, -33.625081) " x="72.9808152" y="1.18455155" width="19.1625761" height="64.8810592"></rect>
                                    <rect fill="#17C671" x="0.876146525" y="11.4315027" width="72.106859" height="3.41000881"></rect>
                                    <rect fill="#5D9350" transform="translate(82.562103, 13.136194) rotate(-180.000000) translate(-82.562103, -13.136194) " x="72.9808152" y="11.4311892" width="19.1625761" height="3.41000881"></rect>
                                    <rect fill="#17C671" x="0.876146525" y="25.0903431" width="72.106859" height="3.41000881"></rect>
                                    <rect fill="#5D9350" transform="translate(82.562103, 26.794407) rotate(-180.000000) translate(-82.562103, -26.794407) " x="72.9808152" y="25.0894029" width="19.1625761" height="3.41000881"></rect>
                                    <rect fill="#17C671" x="0.876146525" y="38.7491836" width="72.106859" height="3.41000881"></rect>
                                    <rect fill="#5D9350" transform="translate(82.562103, 40.452934) rotate(-180.000000) translate(-82.562103, -40.452934) " x="72.9808152" y="38.7479299" width="19.1625761" height="3.41000881"></rect>
                                    <rect fill="#17C671" x="0.876146525" y="52.4048898" width="72.106859" height="3.41000881"></rect>
                                    <rect fill="#17C671" transform="translate(82.562103, 54.114282) rotate(-180.000000) translate(-82.562103, -54.114282) " x="72.9808152" y="52.4092777" width="19.1625761" height="3.41000881"></rect>
                                    <rect fill="#FFFFFF" x="27.8614595" y="1.18267103" width="18.133104" height="64.8810592"></rect>
                                </g>
                                <g transform="translate(134.551074, 145.378756)" id="Rectangle-path">
                                    <rect fill="#37F87A" x="1.17966871" y="0.0606276855" width="72.106859" height="64.8810592"></rect>
                                    <rect fill="#0CAB5E" transform="translate(82.869380, 32.503665) rotate(-180.000000) translate(-82.869380, -32.503665) " x="73.2880923" y="0.0631350449" width="19.1625761" height="64.8810592"></rect>
                                    <rect fill="#17C671" x="1.17966871" y="10.3094593" width="72.106859" height="3.41000881"></rect>
                                    <rect fill="#17C671" transform="translate(82.869380, 12.014464) rotate(-180.000000) translate(-82.869380, -12.014464) " x="73.2880923" y="10.3094593" width="19.1625761" height="3.41000881"></rect>
                                    <rect fill="#17C671" x="1.17966871" y="23.9682998" width="72.106859" height="3.41000881"></rect>
                                    <rect fill="#5D9350" transform="translate(82.869380, 25.672991) rotate(-180.000000) translate(-82.869380, -25.672991) " x="73.2880923" y="23.9679863" width="19.1625761" height="3.41000881"></rect>
                                    <rect fill="#17C671" x="1.17966871" y="37.6271402" width="72.106859" height="3.41000881"></rect>
                                    <rect fill="#5D9350" transform="translate(82.869380, 39.331204) rotate(-180.000000) translate(-82.869380, -39.331204) " x="73.2880923" y="37.6262" width="19.1625761" height="3.41000881"></rect>
                                    <rect fill="#17C671" x="1.17966871" y="51.2859807" width="72.106859" height="3.41000881"></rect>
                                    <rect fill="#5D9350" transform="translate(82.869380, 52.989731) rotate(-180.000000) translate(-82.869380, -52.989731) " x="73.2880923" y="51.284727" width="19.1625761" height="3.41000881"></rect>
                                    <rect fill="#FFFFFF" x="28.1681108" y="0.0606276855" width="18.133104" height="64.8810592"></rect>
                                </g>
                            </g>
                            <g id="Group" transform="translate(27.667456, 362.840778)">
                                <g transform="translate(136.210388, 0.000000)" id="Rectangle-path">
                                    <rect fill="#37F87A" x="0.303522189" y="0.686389642" width="72.106859" height="64.8810592"></rect>
                                    <rect fill="#0CAB5E" transform="translate(81.991356, 33.129113) rotate(-180.000000) translate(-81.991356, -33.129113) " x="72.4100683" y="0.688583581" width="19.1625761" height="64.8810592"></rect>
                                    <rect fill="#17C671" x="0.303522189" y="10.9352213" width="72.106859" height="3.41000881"></rect>
                                    <rect fill="#17C671" transform="translate(81.991356, 12.639912) rotate(-180.000000) translate(-81.991356, -12.639912) " x="72.4100683" y="10.9349079" width="19.1625761" height="3.41000881"></rect>
                                    <rect fill="#17C671" x="0.303522189" y="24.5940617" width="72.106859" height="3.41000881"></rect>
                                    <rect fill="#17C671" transform="translate(81.991356, 26.298126) rotate(-180.000000) translate(-81.991356, -26.298126) " x="72.4100683" y="24.5931215" width="19.1625761" height="3.41000881"></rect>
                                    <rect fill="#17C671" x="0.303522189" y="38.2529022" width="72.106859" height="3.41000881"></rect>
                                    <rect fill="#17C671" transform="translate(81.991356, 39.956653) rotate(-180.000000) translate(-81.991356, -39.956653) " x="72.4100683" y="38.2516485" width="19.1625761" height="3.41000881"></rect>
                                    <rect fill="#6BA35D" x="0.303522189" y="51.9086084" width="72.106859" height="3.41000881"></rect>
                                    <rect fill="#5D9350" transform="translate(81.991356, 53.618001) rotate(-180.000000) translate(-81.991356, -53.618001) " x="72.4100683" y="51.9129963" width="19.1625761" height="3.41000881"></rect>
                                    <rect fill="#FFFFFF" x="27.2888352" y="0.686389642" width="18.133104" height="64.8810592"></rect>
                                </g>
                                <g transform="translate(191.595365, 49.206929)" id="Rectangle-path">
                                    <rect fill="#37F87A" x="1.14837777" y="0.990406971" width="72.106859" height="64.8810592"></rect>
                                    <rect fill="#74AF68" transform="translate(82.835273, 33.432817) rotate(-180.000000) translate(-82.835273, -33.432817) " x="73.2539852" y="0.992287491" width="19.1625761" height="64.8810592"></rect>
                                    <rect fill="#17C671" x="1.14837777" y="11.2392386" width="72.106859" height="3.41000881"></rect>
                                    <rect fill="#5D9350" transform="translate(82.835273, 12.943616) rotate(-180.000000) translate(-82.835273, -12.943616) " x="73.2539852" y="11.2386118" width="19.1625761" height="3.41000881"></rect>
                                    <rect fill="#17C671" x="1.14837777" y="24.8980791" width="72.106859" height="3.41000881"></rect>
                                    <rect fill="#5D9350" transform="translate(82.835273, 26.602143) rotate(-180.000000) translate(-82.835273, -26.602143) " x="73.2539852" y="24.8971388" width="19.1625761" height="3.41000881"></rect>
                                    <rect fill="#17C671" x="1.14837777" y="38.5537853" width="72.106859" height="3.41000881"></rect>
                                    <rect fill="#5D9350" transform="translate(82.835273, 40.263491) rotate(-180.000000) translate(-82.835273, -40.263491) " x="73.2539852" y="38.5584866" width="19.1625761" height="3.41000881"></rect>
                                    <rect fill="#17C671" x="1.14837777" y="52.2126258" width="72.106859" height="3.41000881"></rect>
                                    <rect fill="#5D9350" transform="translate(82.835273, 53.921705) rotate(-180.000000) translate(-82.835273, -53.921705) " x="73.2539852" y="52.2167002" width="19.1625761" height="3.41000881"></rect>
                                    <rect fill="#FFFFFF" x="28.1336908" y="0.990406971" width="18.133104" height="64.8810592"></rect>
                                </g>
                                <g transform="translate(279.210017, 131.901699)" id="Rectangle-path">
                                    <rect fill="#37F87A" x="0.951244799" y="0.248679642" width="72.106859" height="64.8810592"></rect>
                                    <rect fill="#0CAB5E" transform="translate(82.640956, 32.687956) rotate(-180.000000) translate(-82.640956, -32.687956) " x="73.0596684" y="0.247425962" width="19.1625761" height="64.8810592"></rect>
                                    <rect fill="#17C671" x="0.951244799" y="10.4943771" width="72.106859" height="3.41000881"></rect>
                                    <rect fill="#17C671" transform="translate(82.640956, 12.202202) rotate(-180.000000) translate(-82.640956, -12.202202) " x="73.0596684" y="10.4971979" width="19.1625761" height="3.41000881"></rect>
                                    <rect fill="#17C671" x="0.951244799" y="24.1532175" width="72.106859" height="3.41000881"></rect>
                                    <rect fill="#17C671" transform="translate(82.640956, 25.860416) rotate(-180.000000) translate(-82.640956, -25.860416) " x="73.0596684" y="24.1554115" width="19.1625761" height="3.41000881"></rect>
                                    <rect fill="#17C671" x="0.951244799" y="37.812058" width="72.106859" height="3.41000881"></rect>
                                    <rect fill="#17C671" transform="translate(82.640956, 39.518629) rotate(-180.000000) translate(-82.640956, -39.518629) " x="73.0596684" y="37.8136251" width="19.1625761" height="3.41000881"></rect>
                                    <rect fill="#17C671" x="0.951244799" y="51.4708984" width="72.106859" height="3.41000881"></rect>
                                    <rect fill="#17C671" transform="translate(82.640956, 53.177157) rotate(-180.000000) translate(-82.640956, -53.177157) " x="73.0596684" y="51.4721521" width="19.1625761" height="3.41000881"></rect>
                                    <rect fill="#E0D7C6" x="27.9396869" y="0.248679642" width="18.133104" height="64.8810592"></rect>
                                </g>
                                <g transform="translate(242.865135, 77.414722)" id="Rectangle-path">
                                    <rect fill="#37F87A" x="0.842173497" y="0.100294377" width="72.106859" height="64.8810592"></rect>
                                    <rect fill="#74AF68" transform="translate(82.528130, 32.541764) rotate(-180.000000) translate(-82.528130, -32.541764) " x="72.9468422" y="0.101234637" width="19.1625761" height="64.8810592"></rect>
                                    <rect fill="#17C671" x="0.842173497" y="10.3459918" width="72.106859" height="3.41000881"></rect>
                                    <rect fill="#5D9350" transform="translate(82.528130, 12.055698) rotate(-180.000000) translate(-82.528130, -12.055698) " x="72.9468422" y="10.3506931" width="19.1625761" height="3.41000881"></rect>
                                    <rect fill="#17C671" x="0.842173497" y="24.0048323" width="72.106859" height="3.41000881"></rect>
                                    <rect fill="#5D9350" transform="translate(82.528130, 25.713911) rotate(-180.000000) translate(-82.528130, -25.713911) " x="72.9468422" y="24.0089067" width="19.1625761" height="3.41000881"></rect>
                                    <rect fill="#17C671" x="0.842173497" y="37.6636727" width="72.106859" height="3.41000881"></rect>
                                    <rect fill="#5D9350" transform="translate(82.528130, 39.372438) rotate(-180.000000) translate(-82.528130, -39.372438) " x="72.9468422" y="37.6674337" width="19.1625761" height="3.41000881"></rect>
                                    <rect fill="#17C671" x="0.842173497" y="51.3225132" width="72.106859" height="3.41000881"></rect>
                                    <rect fill="#5D9350" transform="translate(82.528130, 53.030652) rotate(-180.000000) translate(-82.528130, -53.030652) " x="72.9468422" y="51.3256474" width="19.1625761" height="3.41000881"></rect>
                                    <rect fill="#E0D7C6" x="27.8274865" y="0.100294377" width="18.133104" height="64.8810592"></rect>
                                </g>
                                <g transform="translate(219.036631, 131.901699)" id="Rectangle-path">
                                    <rect fill="#17C671" x="0.154219669" y="0.248679642" width="72.106859" height="64.8810592"></rect>
                                    <rect fill="#0CAB5E" transform="translate(81.840802, 32.687956) rotate(-180.000000) translate(-81.840802, -32.687956) " x="72.2595142" y="0.247425962" width="19.1625761" height="64.8810592"></rect>
                                    <rect fill="#6BA35D" x="0.154219669" y="10.4943771" width="72.106859" height="3.41000881"></rect>
                                    <rect fill="#17C671" transform="translate(81.840802, 12.202202) rotate(-180.000000) translate(-81.840802, -12.202202) " x="72.2595142" y="10.4971979" width="19.1625761" height="3.41000881"></rect>
                                    <rect fill="#6BA35D" x="0.154219669" y="24.1532175" width="72.106859" height="3.41000881"></rect>
                                    <rect fill="#17C671" transform="translate(81.840802, 25.860416) rotate(-180.000000) translate(-81.840802, -25.860416) " x="72.2595142" y="24.1554115" width="19.1625761" height="3.41000881"></rect>
                                    <rect fill="#17C671" x="0.154219669" y="37.812058" width="72.106859" height="3.41000881"></rect>
                                    <rect fill="#17C671" transform="translate(81.840802, 39.518629) rotate(-180.000000) translate(-81.840802, -39.518629) " x="72.2595142" y="37.8136251" width="19.1625761" height="3.41000881"></rect>
                                    <rect fill="#17C671" x="0.154219669" y="51.4708984" width="72.106859" height="3.41000881"></rect>
                                    <rect fill="#17C671" transform="translate(81.840802, 53.177157) rotate(-180.000000) translate(-81.840802, -53.177157) " x="72.2595142" y="51.4721521" width="19.1625761" height="3.41000881"></rect>
                                    <rect fill="#E0D7C6" x="27.1395327" y="0.248679642" width="18.133104" height="64.8810592"></rect>
                                </g>
                                <g transform="translate(51.990356, 22.204724)" id="Rectangle-path">
                                    <rect fill="#37F87A" x="0.00983429773" y="0.674930744" width="72.106859" height="64.8810592"></rect>
                                    <rect fill="#0CAB5E" transform="translate(81.697356, 33.118281) rotate(-180.000000) translate(-81.697356, -33.118281) " x="72.1160675" y="0.677751523" width="19.1625761" height="64.8810592"></rect>
                                    <rect fill="#17C671" x="0.00983429773" y="10.9237624" width="72.106859" height="3.41000881"></rect>
                                    <rect fill="#17C671" transform="translate(81.697356, 12.629394) rotate(-180.000000) translate(-81.697356, -12.629394) " x="72.1160675" y="10.9243892" width="19.1625761" height="3.41000881"></rect>
                                    <rect fill="#17C671" x="0.00983429773" y="24.5826028" width="72.106859" height="3.41000881"></rect>
                                    <rect fill="#17C671" transform="translate(81.697356, 26.287607) rotate(-180.000000) translate(-81.697356, -26.287607) " x="72.1160675" y="24.5826028" width="19.1625761" height="3.41000881"></rect>
                                    <rect fill="#17C671" x="0.00983429773" y="38.2414433" width="72.106859" height="3.41000881"></rect>
                                    <rect fill="#5D9350" transform="translate(81.697356, 39.945821) rotate(-180.000000) translate(-81.697356, -39.945821) " x="72.1160675" y="38.2408164" width="19.1625761" height="3.41000881"></rect>
                                    <rect fill="#17C671" x="0.00983429773" y="51.9002837" width="72.106859" height="3.41000881"></rect>
                                    <rect fill="#5D9350" transform="translate(81.697356, 53.604348) rotate(-180.000000) translate(-81.697356, -53.604348) " x="72.1160675" y="51.8993435" width="19.1625761" height="3.41000881"></rect>
                                    <rect fill="#FFFFFF" x="26.9951473" y="0.674930744" width="18.133104" height="64.8810592"></rect>
                                </g>
                                <g transform="translate(18.774568, 77.414722)" id="Rectangle-path">
                                    <rect fill="#37F87A" x="0.460870953" y="0.100294377" width="72.106859" height="64.8810592"></rect>
                                    <rect fill="#0CAB5E" transform="translate(82.146828, 32.541764) rotate(-180.000000) translate(-82.146828, -32.541764) " x="72.5655396" y="0.101234637" width="19.1625761" height="64.8810592"></rect>
                                    <rect fill="#17C671" x="0.460870953" y="10.3459918" width="72.106859" height="3.41000881"></rect>
                                    <rect fill="#17C671" transform="translate(82.146828, 12.055698) rotate(-180.000000) translate(-82.146828, -12.055698) " x="72.5655396" y="10.3506931" width="19.1625761" height="3.41000881"></rect>
                                    <rect fill="#17C671" x="0.460870953" y="24.0048323" width="72.106859" height="3.41000881"></rect>
                                    <rect fill="#17C671" transform="translate(82.146828, 25.713911) rotate(-180.000000) translate(-82.146828, -25.713911) " x="72.5655396" y="24.0089067" width="19.1625761" height="3.41000881"></rect>
                                    <rect fill="#17C671" x="0.460870953" y="37.6636727" width="72.106859" height="3.41000881"></rect>
                                    <rect fill="#5D9350" transform="translate(82.146828, 39.372438) rotate(-180.000000) translate(-82.146828, -39.372438) " x="72.5655396" y="37.6674337" width="19.1625761" height="3.41000881"></rect>
                                    <rect fill="#17C671" x="0.460870953" y="51.3225132" width="72.106859" height="3.41000881"></rect>
                                    <rect fill="#5D9350" transform="translate(82.146828, 53.030652) rotate(-180.000000) translate(-82.146828, -53.030652) " x="72.5655396" y="51.3256474" width="19.1625761" height="3.41000881"></rect>
                                    <rect fill="#FFFFFF" x="27.4461839" y="0.100294377" width="18.133104" height="64.8810592"></rect>
                                </g>
                                <g transform="translate(164.637766, 103.693905)" id="Rectangle-path">
                                    <rect fill="#37F87A" x="1.0205319" y="1.13879224" width="72.106859" height="64.8810592"></rect>
                                    <rect fill="#0CAB5E" transform="translate(82.706176, 33.579008) rotate(-180.000000) translate(-82.706176, -33.579008) " x="73.1248877" y="1.13847882" width="19.1625761" height="64.8810592"></rect>
                                    <rect fill="#17C671" x="1.0205319" y="11.3844897" width="72.106859" height="3.41000881"></rect>
                                    <rect fill="#17C671" transform="translate(82.706176, 13.093255) rotate(-180.000000) translate(-82.706176, -13.093255) " x="73.1248877" y="11.3882507" width="19.1625761" height="3.41000881"></rect>
                                    <rect fill="#17C671" x="1.0205319" y="25.0433301" width="72.106859" height="3.41000881"></rect>
                                    <rect fill="#17C671" transform="translate(82.706176, 26.751469) rotate(-180.000000) translate(-82.706176, -26.751469) " x="73.1248877" y="25.0464643" width="19.1625761" height="3.41000881"></rect>
                                    <rect fill="#17C671" x="1.0205319" y="38.7021706" width="72.106859" height="3.41000881"></rect>
                                    <rect fill="#17C671" transform="translate(82.706176, 40.409996) rotate(-180.000000) translate(-82.706176, -40.409996) " x="73.1248877" y="38.7049913" width="19.1625761" height="3.41000881"></rect>
                                    <rect fill="#17C671" x="1.0205319" y="52.361011" width="72.106859" height="3.41000881"></rect>
                                    <rect fill="#17C671" transform="translate(82.706176, 54.068209) rotate(-180.000000) translate(-82.706176, -54.068209) " x="73.1248877" y="52.363205" width="19.1625761" height="3.41000881"></rect>
                                    <rect fill="#FFFFFF" x="28.0058449" y="1.13879224" width="18.133104" height="64.8810592"></rect>
                                </g>
                                <g transform="translate(109.518316, 49.206929)" id="Rectangle-path">
                                    <rect fill="#37F87A" x="0.523452848" y="0.990406971" width="72.106859" height="64.8810592"></rect>
                                    <rect fill="#0CAB5E" transform="translate(82.211287, 33.432817) rotate(-180.000000) translate(-82.211287, -33.432817) " x="72.629999" y="0.992287491" width="19.1625761" height="64.8810592"></rect>
                                    <rect fill="#17C671" x="0.523452848" y="11.2392386" width="72.106859" height="3.41000881"></rect>
                                    <rect fill="#17C671" transform="translate(82.211287, 12.943616) rotate(-180.000000) translate(-82.211287, -12.943616) " x="72.629999" y="11.2386118" width="19.1625761" height="3.41000881"></rect>
                                    <rect fill="#17C671" x="0.523452848" y="24.8980791" width="72.106859" height="3.41000881"></rect>
                                    <rect fill="#17C671" transform="translate(82.211287, 26.602143) rotate(-180.000000) translate(-82.211287, -26.602143) " x="72.629999" y="24.8971388" width="19.1625761" height="3.41000881"></rect>
                                    <rect fill="#17C671" x="0.523452848" y="38.5537853" width="72.106859" height="3.41000881"></rect>
                                    <rect fill="#17C671" transform="translate(82.211287, 40.263491) rotate(-180.000000) translate(-82.211287, -40.263491) " x="72.629999" y="38.5584866" width="19.1625761" height="3.41000881"></rect>
                                    <rect fill="#17C671" x="0.523452848" y="52.2126258" width="72.106859" height="3.41000881"></rect>
                                    <rect fill="#17C671" transform="translate(82.211287, 53.921705) rotate(-180.000000) translate(-82.211287, -53.921705) " x="72.629999" y="52.2167002" width="19.1625761" height="3.41000881"></rect>
                                    <rect fill="#FFFFFF" x="27.5087658" y="0.990406971" width="18.133104" height="64.8810592"></rect>
                                </g>
                                <g transform="translate(78.947954, 103.693905)" id="Rectangle-path">
                                    <rect fill="#37F87A" x="0.262843958" y="1.13879224" width="72.106859" height="64.8810592"></rect>
                                    <rect fill="#0CAB5E" transform="translate(81.952556, 33.579008) rotate(-180.000000) translate(-81.952556, -33.579008) " x="72.3712675" y="1.13847882" width="19.1625761" height="64.8810592"></rect>
                                    <rect fill="#17C671" x="0.262843958" y="11.3844897" width="72.106859" height="3.41000881"></rect>
                                    <rect fill="#17C671" transform="translate(81.952556, 13.093255) rotate(-180.000000) translate(-81.952556, -13.093255) " x="72.3712675" y="11.3882507" width="19.1625761" height="3.41000881"></rect>
                                    <rect fill="#17C671" x="0.262843958" y="25.0433301" width="72.106859" height="3.41000881"></rect>
                                    <rect fill="#17C671" transform="translate(81.952556, 26.751469) rotate(-180.000000) translate(-81.952556, -26.751469) " x="72.3712675" y="25.0464643" width="19.1625761" height="3.41000881"></rect>
                                    <rect fill="#17C671" x="0.262843958" y="38.7021706" width="72.106859" height="3.41000881"></rect>
                                    <rect fill="#17C671" transform="translate(81.952556, 40.409996) rotate(-180.000000) translate(-81.952556, -40.409996) " x="72.3712675" y="38.7049913" width="19.1625761" height="3.41000881"></rect>
                                    <rect fill="#17C671" x="0.262843958" y="52.361011" width="72.106859" height="3.41000881"></rect>
                                    <rect fill="#5D9350" transform="translate(81.952556, 54.068209) rotate(-180.000000) translate(-81.952556, -54.068209) " x="72.3712675" y="52.363205" width="19.1625761" height="3.41000881"></rect>
                                    <rect fill="#FFFFFF" x="27.251286" y="1.13879224" width="18.133104" height="64.8810592"></rect>
                                </g>
                                <g transform="translate(0.000000, 131.901699)" id="Rectangle-path">
                                    <rect fill="#37F87A" x="0.589163837" y="0.248679642" width="72.106859" height="64.8810592"></rect>
                                    <rect fill="#0CAB5E" transform="translate(82.276059, 32.687956) rotate(-180.000000) translate(-82.276059, -32.687956) " x="72.6947712" y="0.247425962" width="19.1625761" height="64.8810592"></rect>
                                    <rect fill="#17C671" x="0.589163837" y="10.4943771" width="72.106859" height="3.41000881"></rect>
                                    <rect fill="#17C671" transform="translate(82.276059, 12.202202) rotate(-180.000000) translate(-82.276059, -12.202202) " x="72.6947712" y="10.4971979" width="19.1625761" height="3.41000881"></rect>
                                    <rect fill="#17C671" x="0.589163837" y="24.1532175" width="72.106859" height="3.41000881"></rect>
                                    <rect fill="#17C671" transform="translate(82.276059, 25.860416) rotate(-180.000000) translate(-82.276059, -25.860416) " x="72.6947712" y="24.1554115" width="19.1625761" height="3.41000881"></rect>
                                    <rect fill="#17C671" x="0.589163837" y="37.812058" width="72.106859" height="3.41000881"></rect>
                                    <rect fill="#5D9350" transform="translate(82.276059, 39.518629) rotate(-180.000000) translate(-82.276059, -39.518629) " x="72.6947712" y="37.8136251" width="19.1625761" height="3.41000881"></rect>
                                    <rect fill="#17C671" x="0.589163837" y="51.4708984" width="72.106859" height="3.41000881"></rect>
                                    <rect fill="#5D9350" transform="translate(82.276059, 53.177157) rotate(-180.000000) translate(-82.276059, -53.177157) " x="72.6947712" y="51.4721521" width="19.1625761" height="3.41000881"></rect>
                                    <rect fill="#FFFFFF" x="27.5744768" y="0.248679642" width="18.133104" height="64.8810592"></rect>
                                </g>
                                <g transform="translate(66.431575, 158.903903)" id="Rectangle-path">
                                    <rect fill="#37F87A" x="0.419298694" y="0.56415587" width="72.106859" height="64.8810592"></rect>
                                    <rect fill="#0CAB5E" transform="translate(82.109010, 33.002492) rotate(-180.000000) translate(-82.109010, -33.002492) " x="72.5277223" y="0.56196193" width="19.1625761" height="64.8810592"></rect>
                                    <rect fill="#17C671" x="0.419298694" y="10.8098533" width="72.106859" height="3.41000881"></rect>
                                    <rect fill="#35F77A" transform="translate(82.109010, 12.516425) rotate(-180.000000) translate(-82.109010, -12.516425) " x="72.5277223" y="10.8114204" width="19.1625761" height="3.41000881"></rect>
                                    <rect fill="#17C671" x="0.419298694" y="24.4686938" width="72.106859" height="3.41000881"></rect>
                                    <rect fill="#35F77A" transform="translate(82.109010, 26.174952) rotate(-180.000000) translate(-82.109010, -26.174952) " x="72.5277223" y="24.4699474" width="19.1625761" height="3.41000881"></rect>
                                    <rect fill="#17C671" x="0.419298694" y="38.1275342" width="72.106859" height="3.41000881"></rect>
                                    <rect fill="#35F77A" transform="translate(82.109010, 39.833165) rotate(-180.000000) translate(-82.109010, -39.833165) " x="72.5277223" y="38.128161" width="19.1625761" height="3.41000881"></rect>
                                    <rect fill="#17C671" x="0.419298694" y="51.7863747" width="72.106859" height="3.41000881"></rect>
                                    <rect fill="#17C671" transform="translate(82.109010, 53.491692) rotate(-180.000000) translate(-82.109010, -53.491692) " x="72.5277223" y="51.7866881" width="19.1625761" height="3.41000881"></rect>
                                    <rect fill="#FFFFFF" x="27.4077408" y="0.56415587" width="18.133104" height="64.8810592"></rect>
                                </g>
                                <g transform="translate(135.271659, 145.644085)" id="Rectangle-path">
                                    <rect fill="#37F87A" x="0.725949978" y="0.165134161" width="72.106859" height="64.8810592"></rect>
                                    <rect fill="#0CAB5E" transform="translate(82.413471, 32.604097) rotate(-180.000000) translate(-82.413471, -32.604097) " x="72.8321832" y="0.163567061" width="19.1625761" height="64.8810592"></rect>
                                    <rect fill="#17C671" x="0.725949978" y="10.4108316" width="72.106859" height="3.41000881"></rect>
                                    <rect fill="#17C671" transform="translate(82.413471, 12.118030) rotate(-180.000000) translate(-82.413471, -12.118030) " x="72.8321832" y="10.4130255" width="19.1625761" height="3.41000881"></rect>
                                    <rect fill="#17C671" x="0.725949978" y="24.069672" width="72.106859" height="3.41000881"></rect>
                                    <rect fill="#17C671" transform="translate(82.413471, 25.776244) rotate(-180.000000) translate(-82.413471, -25.776244) " x="72.8321832" y="24.0712391" width="19.1625761" height="3.41000881"></rect>
                                    <rect fill="#17C671" x="0.725949978" y="37.7285125" width="72.106859" height="3.41000881"></rect>
                                    <rect fill="#17C671" transform="translate(82.413471, 39.434771) rotate(-180.000000) translate(-82.413471, -39.434771) " x="72.8321832" y="37.7297662" width="19.1625761" height="3.41000881"></rect>
                                    <rect fill="#17C671" x="0.725949978" y="51.3873529" width="72.106859" height="3.41000881"></rect>
                                    <rect fill="#17C671" transform="translate(82.413471, 53.092984) rotate(-180.000000) translate(-82.413471, -53.092984) " x="72.8321832" y="51.3879798" width="19.1625761" height="3.41000881"></rect>
                                    <rect fill="#FFFFFF" x="27.7143921" y="0.165134161" width="18.133104" height="64.8810592"></rect>
                                </g>
                            </g>
                            <path d="M339.520189,547.561081 L337.057591,575.417844 C336.822909,578.066242 338.20284,580.586138 340.568436,581.792805 C344.780197,583.946 351.570333,588.13329 356.733339,594.771524 C362.734943,602.487923 378.896717,603.619369 386.750745,603.69459 C389.454283,603.719663 391.672811,601.538261 391.610229,598.827178 C391.525743,595.20091 390.374237,590.565429 385.417751,588.866693 C380.749141,587.265117 375.448455,581.028061 372.2161,571.312043 C363.905224,546.341877 368.983745,535.688734 368.983745,535.688734 L339.520189,547.561081 Z" id="Shape" fill="#082840"></path>
                            <path d="M314.562529,547.561081 L317.05016,575.715593 C317.269196,578.185342 315.986268,580.545394 313.777127,581.661169 C309.587269,583.773619 302.621904,587.995386 297.349379,594.771524 C291.673201,602.06794 276.910132,603.47833 268.680613,603.67265 C264.991411,603.760408 262.109514,600.475767 262.632073,596.815022 C263.085792,593.643213 264.587757,590.264546 268.661839,588.869827 C273.330448,587.268251 278.631135,581.031195 281.863489,571.315177 C290.174365,546.345011 285.095844,535.691868 285.095844,535.691868 L314.562529,547.561081 Z" id="Shape" fill="#082840"></path>
                            <path d="M115.204775,179.972787 C115.204775,179.972787 109.384659,173.441116 102.153321,170.620336 C94.9219828,167.796423 79.9117153,168.818172 77.9904512,170.620336 C76.5229057,171.99625 76.9328172,173.936319 80.1057192,174.397046 C83.2817504,174.857774 89.9842713,176.092648 86.1041938,177.152008 C82.2241163,178.211367 72.5239227,180.330086 63.1741876,181.210796 C53.8275816,182.09464 52.7668185,185.623748 59.8229271,188.798692 C66.8790358,191.97677 84.5177428,199.740182 103.035725,198.680822 C121.553708,197.621463 120.674432,191.268441 120.674432,191.268441 L115.204775,179.972787 Z" id="Shape" fill="#FFEB91"></path>
                            <path d="M544.635478,180.257999 C544.635478,180.257999 553.863178,169.059505 574.677916,180.257999 C574.677916,180.257999 576.295658,182.752822 570.838517,185.589272 C565.381376,188.422588 580.738973,192.268251 599.935969,189.638657 C599.935969,189.638657 608.422074,194.496666 591.449864,198.138606 C574.474525,201.780545 547.598731,202.792892 540.123323,198.138606 C532.647916,193.48432 544.635478,180.257999 544.635478,180.257999 Z" id="Shape" fill="#FFEB91"></path>
                            <path d="M387.376564,311.129624 C387.376564,311.129624 385.755693,360.715791 377.46985,432.796106 C376.665673,439.788504 375.432809,446.721353 375.013511,453.716886 C373.492771,478.621233 375.110513,539.600214 371.878158,565.444822 C361.630372,558.515107 333.080512,565.444822 333.080512,565.444822 L333.596813,441.380678 C333.596813,441.380678 330.42704,367.024934 326.162084,347.270076 C321.925289,368.093696 319.112233,441.380678 319.112233,441.380678 L319.628534,565.444822 C319.628534,565.444822 291.078673,558.515107 280.830888,565.444822 C277.598533,539.600214 279.213146,478.621233 277.695535,453.716886 C277.276237,446.721353 276.09031,439.782236 275.239196,432.796106 C267.801338,371.876674 265.529615,311.045001 265.529615,311.045001 C288.612947,288.992775 307.472001,283.310471 326.321667,284.313415 L326.352958,287.002558 L326.384249,284.313415 C345.237045,283.307337 364.293232,289.077398 387.376564,311.129624 Z" id="Shape" fill="#082840"></path>
                            <path d="M406.53914,122.240836 C406.53914,122.240836 422.653978,144.957513 440.949795,149.708959 C458.851346,154.356976 484.791541,164.981912 495.846633,167.273011 C506.901725,169.564111 548.074353,174.911055 548.074353,174.911055 C548.074353,174.911055 547.551794,198.010104 546.027925,202.974675 C540.761659,204.303576 510.015174,197.684147 506.582557,197.684147 C503.153069,197.684147 427.989084,194.386969 406.639271,179.875627 C385.292587,165.364284 395.865798,127.970152 406.53914,122.240836 Z" id="Shape" fill="#FBD956"></path>
                            <path d="M258.986678,117.574013 C258.986678,117.574013 248.429112,136.344733 236.231901,141.688543 C224.031561,147.035487 185.909799,168.022085 111.953645,172.221912 C111.953645,172.221912 114.622763,184.454692 108.902778,201.257134 C108.902778,201.257134 188.197168,197.439679 198.11014,193.619091 L204.092969,191.920355 C205.951651,191.390675 207.816592,190.955021 209.719081,190.610259 C219.556955,188.814363 252.778554,182.455073 257.963464,177.584527 C264.06207,171.858345 278.812622,126.35604 258.986678,117.574013 Z" id="Shape" fill="#FBD956"></path>
                            <path d="M363.388924,45.9669626 C363.094789,59.610132 354.808946,97.1139606 333.327711,96.6469649 C311.846475,96.1799692 305.190891,58.3533181 305.485026,44.7101487 C305.779161,31.0669792 318.980811,20.2884679 334.970485,20.6332298 C350.963288,20.9811259 363.686188,32.3237931 363.388924,45.9669626 Z" id="Shape" fill="#FFEB91"></path>
                            <path d="M360.951359,116.010048 C340.496467,103.184905 349.614649,75.7888687 349.614649,75.7888687 L317.500749,75.0930765 C317.500749,75.0930765 325.423617,102.858948 304.436779,114.784576 C294.348577,120.513892 370.782975,122.175018 360.951359,116.010048 Z" id="Shape" fill="#FFEB91"></path>
                            <path d="M306.827407,19.786996 C306.827407,19.786996 317.625913,25.2373686 311.442822,37.1379232 C307.321804,45.0705816 307.594035,59.1149285 307.515808,62.6910499 C307.515808,62.6910499 299.261256,52.4829629 299.608586,36.4452652 C299.79946,27.729057 298.381981,19.6052125 306.827407,19.786996 Z" id="Shape" fill="#0E2D45"></path>
                            <path d="M359.177162,18.4706323 C359.177162,18.4706323 352.950264,23.5856455 356.605046,36.1945292 C359.042611,44.6035859 358.682765,60.1429459 358.601409,63.8663747 C358.601409,63.8663747 365.031698,53.5611274 365.391544,36.8589795 C365.660646,24.3378534 363.101047,18.5552557 359.177162,18.4706323 Z" id="Shape" fill="#1C4B6E"></path>
                            <path d="M309.818822,37.8086419 C309.818822,37.8086419 306.135877,30.9760874 303.329079,25.2875158 C300.519152,19.5989441 306.117103,1.88131555 328.480743,0.458389082 C344.789585,-0.579030879 360.751097,5.28505597 360.438187,19.6396887 C360.219151,29.7255419 351.010225,33.3643473 327.31672,36.4546678 C315.911169,37.9402782 309.818822,37.8086419 309.818822,37.8086419 Z" id="Shape" fill="#0E2D45"></path>
                            <ellipse id="Oval" fill="#FFEB91" transform="translate(358.442563, 60.999933) rotate(-82.541666) translate(-358.442563, -60.999933) " cx="358.442563" cy="60.9999328" rx="8.454477" ry="4.45978782"></ellipse>
                            <ellipse id="Oval" fill="#FFEB91" transform="translate(307.277695, 60.979178) rotate(-7.458334) translate(-307.277695, -60.979178) " cx="307.277695" cy="60.9791779" rx="4.45252434" ry="8.46826892"></ellipse>
                            <polygon id="Shape" fill="#EFEFEF" points="348.356753 97.010532 353.275689 110.515797 368.639545 127.788369 384.259986 146.947729 345.640698 195.004407 305.478767 158.82321 297.502705 113.753425 309.221165 101.946896 334.882871 106.19687"></polygon>
                            <path d="M353.275689,110.515797 L368.639545,127.788369 L384.259986,146.947729 L345.640698,195.004407 L305.478767,158.82321 L297.505834,113.753425 L309.221165,101.946896 L309.778144,101.34513 C321.57796,122.159347 345.002363,140.688733 353.275689,110.515797 Z" id="Shape" fill="#FFFFFF"></path>
                            <path d="M309.221165,101.946896 C309.221165,101.946896 299.054736,111.459191 285.030133,110.760264 C274.419373,111.910515 264.672243,114.78771 260.491772,116.141684 C259.268296,116.539728 258.561121,117.771468 258.811449,119.03455 C260.128797,125.685321 263.307958,150.401617 256.054716,167.454795 L257.960335,177.581393 C257.960335,177.581393 278.546649,206.983316 274.353662,242.496928 C270.160675,278.007406 259.105583,325.741261 259.105583,325.741261 C259.105583,325.741261 325.821012,325.358889 334.588736,311.612291 C343.356459,297.865693 347.806032,196.490017 346.789076,190.948753 C345.77212,185.404354 325.821012,166.129029 319.722407,160.399712 C313.623801,154.670396 295.622119,136.695763 309.221165,101.946896 Z" id="Shape" fill="#FBD956"></path>
                            <path d="M346.907982,193.575212 C343.187488,186.733255 326.168342,175.644458 304.821658,156.948959 C283.474973,138.25346 279.294503,119.159918 279.294503,119.159918 L291.889109,114.975762 L285.027004,110.760264 C295.794219,109.60061 309.158583,101.978238 309.218036,101.946896 C297.906358,136.896352 313.633188,154.689201 319.734923,160.399712 C325.833529,166.113358 345.781508,185.416891 346.785947,190.948753 C346.848529,191.346796 346.907982,192.261982 346.907982,193.575212 Z" id="Shape" fill="#E6C442"></path>
                            <path d="M337.899318,199.06006 L337.930609,199.028718 C337.899318,199.091402 337.899318,199.154086 337.899318,199.185428 C337.868027,199.310796 337.868027,199.279454 337.899318,199.06006 Z" id="Shape" fill="#F8CABF"></path>
                            <path d="M318.026437,94.9419605 C318.026437,94.9419605 310.432124,100.329649 309.221165,101.95003 C309.221165,101.95003 308.629766,113.540299 312.065512,117.990862 C312.065512,117.990862 329.516473,105.363173 334.770223,106.171796 C340.023973,106.98042 351.870726,113.054498 358.335436,119.529754 C358.335436,119.529754 353.028491,102.57687 348.244105,96.9823242 L334.770223,106.168662 L318.026437,94.9419605 Z" id="Shape" fill="#FFFFFF"></path>
                            <path d="M350.043335,99.3141685 C350.043335,99.3141685 366.433533,112.706602 403.525822,120.441806 C405.453344,120.842983 407.027279,122.262776 407.546709,124.165235 C410.009306,133.201131 416.023426,160.13644 406.639271,179.872492 C395.20243,203.927472 386.434706,230.659058 388.722075,253.952427 C391.009443,277.245796 395.965929,311.612291 395.584179,323.450161 C395.584179,323.450161 352.402672,324.214906 344.448513,310.468308 C336.494354,296.72171 337.636474,196.179731 337.636474,196.179731 C337.636474,196.179731 376.834644,148.950482 377.181973,140.933201 C377.529303,132.915919 358.326048,121.262966 356.748985,115.72797 C355.17505,110.18984 350.043335,99.3141685 350.043335,99.3141685 Z" id="Shape" fill="#FFF0B4"></path>
                            <path d="M384.147338,152.764803 C377.529303,160.829098 351.454556,181.022744 341.510293,191.102328 C350.903836,178.637618 374.356401,146.960266 374.663052,140.54456 C374.997865,132.511607 360.000114,121.739364 358.451212,119.554827 C352.940876,111.79455 349.764845,99.0947745 349.764845,99.0947745 C350.252984,99.4928178 359.577686,105.269147 370.31361,109.760455 L361.092168,114.975762 L378.048732,116.868819 C378.048732,116.868819 376.280794,123.221841 379.572602,127.559572 C382.867538,131.900438 392.289243,142.83566 384.147338,152.764803 Z" id="Shape" fill="#FBD956"></path>
                            <ellipse id="Oval" fill="#082840" cx="346.836013" cy="201.260268" rx="4.82193498" ry="4.82980109"></ellipse>
                            <ellipse id="Oval" fill="#082840" cx="346.929885" cy="234.116079" rx="4.72806214" ry="4.73577511"></ellipse>
                            <ellipse id="Oval" fill="#082840" cx="348.15649" cy="266.771302" rx="5.11919898" ry="5.12755002"></ellipse>
                            <g id="Group" transform="translate(491.494062, 507.279274)">
                                <rect id="Rectangle-path" fill="#37F87A" x="0.694659031" y="1.01029007" width="72.106859" height="64.8810592"></rect>
                                <rect id="Rectangle-path" fill="#0CAB5E" transform="translate(82.379990, 33.451133) rotate(-180.000000) translate(-82.379990, -33.451133) " x="72.7987019" y="1.01060349" width="19.1625761" height="64.8810592"></rect>
                                <rect id="Rectangle-path" fill="#17C671" x="0.694659031" y="11.2559875" width="72.106859" height="3.41000881"></rect>
                                <rect id="Rectangle-path" fill="#17C671" transform="translate(82.379990, 12.965380) rotate(-180.000000) translate(-82.379990, -12.965380) " x="72.7987019" y="11.2603754" width="19.1625761" height="3.41000881"></rect>
                                <rect id="Rectangle-path" fill="#17C671" x="0.694659031" y="24.914828" width="72.106859" height="3.41000881"></rect>
                                <rect id="Rectangle-path" fill="#17C671" transform="translate(82.379990, 26.623593) rotate(-180.000000) translate(-82.379990, -26.623593) " x="72.7987019" y="24.918589" width="19.1625761" height="3.41000881"></rect>
                                <rect id="Rectangle-path" fill="#17C671" x="0.694659031" y="38.5736684" width="72.106859" height="3.41000881"></rect>
                                <rect id="Rectangle-path" fill="#17C671" transform="translate(82.379990, 40.282120) rotate(-180.000000) translate(-82.379990, -40.282120) " x="72.7987019" y="38.577116" width="19.1625761" height="3.41000881"></rect>
                                <rect id="Rectangle-path" fill="#17C671" x="0.694659031" y="52.2325088" width="72.106859" height="3.41000881"></rect>
                                <rect id="Rectangle-path" fill="#17C671" transform="translate(82.379990, 53.940334) rotate(-180.000000) translate(-82.379990, -53.940334) " x="72.7987019" y="52.2353296" width="19.1625761" height="3.41000881"></rect>
                                <rect id="Rectangle-path" fill="#FFFFFF" x="27.679972" y="1.01029007" width="18.133104" height="64.8810592"></rect>
                            </g>
                        </g>
                    </g>
                </g>
            </g>
        </g>
    </g>
</svg>