<?xml version="1.0" encoding="UTF-8"?>
<svg width="96px" height="96px" viewBox="0 0 96 96" version="1.1" xmlns="http://www.w3.org/2000/svg" xmlns:xlink="http://www.w3.org/1999/xlink">
    <!-- Generator: sketchtool 50.2 (55047) - http://www.bohemiancoding.com/sketch -->
    <title>5BB9ED0E-B72D-44B6-BB5D-6175D15CA62D</title>
    <desc>Created with sketchtool.</desc>
    <defs></defs>
    <g id="Page-1" stroke="none" stroke-width="1" fill="none" fill-rule="evenodd">
        <g id="Business_game" transform="translate(-375.000000, -2249.000000)" fill-rule="nonzero">
            <g id="Group-7" transform="translate(372.000000, 2249.000000)">
                <g id="startup_icon" transform="translate(3.000000, 0.000000)">
                    <g id="coin">
                        <circle id="Oval" fill="#FBD956" cx="48" cy="48" r="48"></circle>
                        <circle id="Oval" fill="#FFE92F" cx="48" cy="48" r="33.28125"></circle>
                        <path d="M17.6686875,50.952375 C17.6686875,32.5719375 32.5689375,17.6716875 50.949375,17.6716875 C59.3953125,17.6716875 67.1049375,20.819625 72.973125,26.0038125 C66.8745,19.08525 57.9478125,14.7193125 48,14.7193125 C29.6195625,14.7193125 14.7193125,29.6195625 14.7193125,48 C14.7193125,57.9345 19.073625,66.8506875 25.97625,72.9485625 C20.8065,67.08375 17.6686875,59.385 17.6686875,50.952375 Z" id="Shape" fill="#FFF634"></path>
                        <g id="Group" transform="translate(18.937500, 18.937500)" fill="#FFF80B">
                            <path d="M56.49375,10.18425 C55.84725,9.2475 55.15425,8.3454375 54.41775,7.4814375 L7.47675,54.37275 C8.339625,55.1101875 9.24075,55.8035625 10.1765625,56.451 L56.49375,10.18425 Z" id="Shape"></path>
                            <path d="M45.544875,0.1321875 L0.063,45.359625 C1.40625,47.7465 3.0343125,49.951125 4.9029375,51.9268125 L52.07625,5.001 C50.113125,3.1245 47.9203125,1.4866875 45.544875,0.1321875 Z" id="Shape"></path>
                        </g>
                        <path d="M50.5588125,32.1189375 L53.559,38.197875 C53.9746875,39.040125 54.778125,39.6238125 55.7075625,39.7588125 L62.416125,40.733625 C64.7566875,41.07375 65.6911875,43.95 63.9975,45.60075 L59.143125,50.3325 C58.4705625,50.988 58.163625,51.932625 58.3224375,52.8583125 L59.4684375,59.5396875 C59.8681875,61.8706875 57.4215,63.648375 55.32825,62.54775 L49.3280625,59.39325 C48.4966875,58.9561875 47.5036875,58.9561875 46.6723125,59.39325 L40.672125,62.54775 C38.5786875,63.648375 36.132,61.8706875 36.5319375,59.5396875 L37.6779375,52.8583125 C37.83675,51.932625 37.5298125,50.9881875 36.85725,50.3325 L32.002875,45.60075 C30.3091875,43.9498125 31.243875,41.0735625 33.58425,40.733625 L40.2928125,39.7588125 C41.22225,39.6238125 42.0256875,39.0399375 42.441375,38.197875 L45.4415625,32.1189375 C46.4878125,29.998125 49.5121875,29.998125 50.5588125,32.1189375 Z" id="Shape" fill="#FBBF56"></path>
                    </g>
                </g>
            </g>
        </g>
    </g>
</svg>